<svg width="512" height="512" viewBox="0 0 512 512" fill="none" xmlns="http://www.w3.org/2000/svg">
<path d="M328.279 27.1797C329.388 28.9929 330.793 30.7993 331.668 32.7365C355.523 85.2128 379.378 137.689 403.233 190.165C403.357 190.4 403.543 190.751 403.55 191.048C403.894 193.116 404.237 195.184 404.581 197.252C402.417 197.271 400.025 197.712 398.054 197.104C322.499 173.922 246.972 150.649 171.355 127.35C170.28 127.018 169.295 126.715 168.247 126.294C165.222 124.969 165.03 123.046 167.415 121.034C168.725 119.967 170.249 119.161 171.711 118.238C220.378 88.5982 269.134 58.9862 317.891 29.3743C319.966 28.0517 322.379 27.2256 324.667 26.165C325.949 26.4619 327.114 26.8208 328.279 27.1797Z" fill="#F8F8F8"/>
<path d="M192.31 487.553C192.462 485.148 192.077 482.577 192.767 480.337C198.668 460.868 204.631 441.516 210.622 422.074C212.775 415.086 216.016 412.847 223.128 413.959C246.403 417.698 269.651 421.525 292.926 425.264C321.142 429.838 349.269 434.384 377.486 438.959C382.634 439.76 387.638 440.713 392.759 441.605C392.8 442.108 392.779 442.494 392.82 442.997C390.787 443.548 388.905 444.243 386.809 444.676C323.798 459.105 260.787 473.534 197.686 487.935C197.155 488.065 196.597 488.286 196.038 488.506C194.729 488.299 193.564 487.94 192.31 487.553Z" fill="#F8F8F8"/>
<path d="M174.391 482.032C154.962 461.036 135.561 439.951 116.132 418.955C90.9573 391.774 65.6928 364.566 40.518 337.385C39.4226 336.164 38.4443 334.882 38.1281 332.724C39.4444 333.228 40.8779 333.67 42.1666 334.263C66.1141 345.37 89.972 356.449 113.919 367.556C139.817 379.656 165.598 391.818 191.523 403.828C200.964 408.209 202.328 410.787 199.319 420.553C193.577 439.188 187.896 457.941 181.975 476.521C181.23 478.94 179.437 480.938 178.154 483.192C176.81 482.778 175.645 482.419 174.391 482.032Z" fill="#F8F8F8"/>
<path d="M26.5431 277.358C27.0676 275.656 27.5921 273.954 28.1167 272.251C46.751 211.776 65.3577 151.39 83.992 90.9147C86.3938 83.12 88.7789 82.3835 94.9182 87.6106C107.383 98.4163 119.875 109.132 132.339 119.938C138.299 125.11 138.649 128.75 133.815 135.206C99.671 181.387 65.4375 227.54 31.3212 273.631C30.2867 275.078 28.9835 276.442 27.8594 277.862C27.3838 277.813 26.9635 277.586 26.5431 277.358Z" fill="#F8F8F8"/>
<path d="M432.049 402.601C431.857 400.678 431.547 398.817 431.472 396.832C429.152 339.415 426.893 282.116 424.662 224.727C424.396 216.993 426.734 214.182 434.275 213.268C450.956 211.345 467.665 209.332 484.346 207.409C491.266 206.598 493.154 208.75 491.166 215.2C472.311 276.392 453.456 337.585 434.601 398.777C434.187 400.121 433.711 401.347 433.207 402.664C432.821 402.643 432.435 402.622 432.049 402.601Z" fill="#F8F8F8"/>
<path d="M353.421 49.0532C366.822 63.1885 380.222 77.3238 393.506 91.521C423.173 123.225 452.812 155.019 482.451 186.813C483.333 187.771 484.153 188.613 484.918 189.633C487.426 192.956 486.591 195.348 482.51 195.856C464.767 198.041 447.025 200.226 429.186 202.086C423.623 202.629 420.02 199.36 417.678 194.224C408.12 173.032 398.472 151.813 388.796 130.683C377.151 105.121 365.533 79.4684 353.978 53.9334C353.323 52.5546 352.993 51.0795 352.484 49.5491C352.897 49.4803 353.159 49.2668 353.421 49.0532Z" fill="#F8F8F8"/>
<path d="M292.098 30.9424C285.521 35.096 279.067 39.484 272.428 43.5205C234.964 66.4097 197.439 89.1818 159.913 111.954C158.83 112.601 157.748 113.249 156.666 113.896C150.433 117.568 146.243 117.159 140.917 112.477C128.604 101.816 116.201 91.1274 103.971 80.1977C102.428 78.8392 101.664 76.5437 100.582 74.6409C102.368 73.6215 104.112 72.0989 106.001 71.6999C145.975 62.6314 185.949 53.5629 225.896 44.584C246.251 39.9672 266.607 35.3504 286.963 30.7336C288.438 30.4033 290.065 30.2178 291.54 29.8876C291.788 30.3564 291.884 30.6804 292.098 30.9424Z" fill="#F8F8F8"/>
<path fill-rule="evenodd" clip-rule="evenodd" d="M165.12 137.397C158.222 135.271 156.305 137.035 157.798 143.969C157.918 144.303 157.97 144.673 158.019 145.013C158.034 145.121 158.049 145.227 158.066 145.327C168.432 192.54 178.842 239.731 189.249 286.905C195.889 317.003 202.527 347.094 209.151 377.182C209.298 377.866 209.442 378.558 209.587 379.253C210.199 382.184 210.826 385.186 211.683 388.066C212.743 391.63 215.073 392.348 218.106 390.143C218.973 389.53 219.751 388.749 220.512 387.983C220.854 387.641 221.192 387.301 221.533 386.981C247.193 362.761 272.868 338.571 298.543 314.38C324.22 290.188 349.897 265.995 375.559 241.773C383.978 233.871 392.397 225.968 400.727 218.038C404.905 214.028 404.279 211.285 398.69 209.367L165.12 137.397ZM229.9 289.203L239.095 289.29C239.373 284.143 239.88 280.375 240.616 277.986C242.162 272.969 246.883 269.322 254.778 267.046C258.077 266.101 261.726 264.871 265.725 263.356C269.843 261.878 273.662 260.308 277.182 258.646C280.822 257.021 284.145 254.514 287.152 251.124C290.278 247.77 292.559 243.764 293.994 239.106C296.755 230.146 295.706 222.302 290.847 215.573C286.025 208.724 278.716 203.791 268.92 200.773C263.306 199.043 257.273 198.034 250.822 197.746C244.407 197.339 239.155 197.618 235.065 198.581C234.577 199.739 233.689 202.408 232.401 206.589C231.149 210.651 230.431 214.68 230.246 218.678L239.59 222.735C242.212 216.348 244.038 212.333 245.068 210.688C246.098 209.044 247.164 208.13 248.267 207.946C252.44 207.139 257.334 207.601 262.948 209.331C268.563 211.061 273.019 214.003 276.316 218.159C279.733 222.351 280.65 227.015 279.068 232.152C277.522 237.169 274.883 241.065 271.15 243.839C267.537 246.649 263.553 248.757 259.196 250.161C254.839 251.566 250.501 252.91 246.181 254.195C235.574 257.205 229.351 261.697 227.51 267.67C225.964 272.687 226.761 279.865 229.9 289.203ZM232.16 325.804C234.661 324.482 236.371 322.327 237.291 319.341C239.168 313.248 236.762 309.172 230.072 307.11C226.728 306.08 223.823 306.166 221.36 307.369C219.053 308.489 217.439 310.542 216.519 313.529C215.599 316.515 215.818 319.199 217.177 321.58C218.693 323.878 220.944 325.487 223.93 326.407C227.036 327.364 229.779 327.163 232.16 325.804Z" fill="#F8F8F8"/>
<path fill-rule="evenodd" clip-rule="evenodd" d="M413.268 433.307C416.838 433.819 419.423 432.751 421.058 429.037C421.086 427.672 421.108 426.011 420.895 424.474C418.698 367.292 416.44 309.992 414.154 252.783C414.086 251.024 414.023 249.267 413.961 247.512C413.751 241.635 413.541 235.772 413.156 229.912C412.855 225.797 410.822 225.073 407.643 227.429C407.059 227.837 406.531 228.35 406.002 228.863C405.738 229.12 405.474 229.376 405.202 229.62C384.942 248.734 364.653 267.863 344.363 286.993C324.071 306.125 303.778 325.258 283.515 344.375C265.284 361.516 247.026 378.748 228.857 396.006C227.924 396.902 227.399 398.187 226.863 399.497C226.6 400.143 226.333 400.795 226.015 401.409C226.621 401.664 227.219 401.989 227.819 402.315C228.938 402.923 230.067 403.536 231.287 403.72C243.477 405.805 255.651 407.795 267.812 409.782C273.5 410.711 279.184 411.64 284.866 412.578C298.885 414.837 312.897 417.119 326.909 419.401C340.921 421.683 354.932 423.965 368.951 426.225C376.333 427.42 383.721 428.593 391.11 429.766C398.498 430.939 405.886 432.112 413.268 433.307ZM327.68 367.993L333.88 371.897C336.22 368.523 338.14 366.18 339.638 364.867C342.785 362.111 347.511 361.612 353.818 363.37C356.451 364.109 359.44 364.801 362.785 365.445C366.196 366.165 369.442 366.697 372.525 367.042C375.673 367.462 378.976 367.151 382.433 366.109C385.955 365.143 389.177 363.379 392.099 360.82C397.718 355.898 400.287 350.14 399.805 343.544C399.399 336.883 396.505 330.48 391.124 324.337C388.04 320.816 384.37 317.609 380.115 314.716C375.935 311.757 372.256 309.75 369.079 308.693C368.265 309.274 366.546 310.713 363.924 313.01C361.377 315.241 359.204 317.673 357.407 320.307L362.048 326.966C366.497 323.731 369.414 321.772 370.8 321.087C372.187 320.402 373.292 320.229 374.117 320.565C377.284 321.763 380.41 324.122 383.494 327.644C386.579 331.165 388.37 335.024 388.869 339.221C389.434 343.493 388.105 347.04 384.883 349.862C381.737 352.618 378.318 354.156 374.627 354.477C371.001 354.872 367.417 354.635 363.875 353.766C360.333 352.896 356.828 351.994 353.361 351.059C344.909 348.665 338.81 349.109 335.064 352.39C331.917 355.146 329.456 360.347 327.68 367.993ZM313.907 393.761C316.155 393.91 318.216 393.164 320.089 391.524C323.91 388.177 323.983 384.406 320.308 380.21C318.471 378.112 316.465 376.956 314.291 376.742C312.258 376.537 310.305 377.255 308.432 378.895C306.559 380.536 305.586 382.448 305.512 384.631C305.578 386.823 306.432 388.856 308.073 390.729C309.779 392.677 311.724 393.688 313.907 393.761Z" fill="#F8F8F8"/>
<path fill-rule="evenodd" clip-rule="evenodd" d="M163.266 378.052C173.79 383.061 184.43 388.007 195.16 392.981C199.102 394.195 200.715 392.142 199.553 386.683L199.551 386.674C182.021 307.308 164.491 227.942 146.871 148.549C146.593 147.376 145.852 146.353 145.105 145.32C144.706 144.768 144.305 144.214 143.971 143.633C143.489 143.983 142.965 144.31 142.438 144.639C141.306 145.346 140.16 146.061 139.393 147.029C112.363 183.373 85.4075 219.788 58.4433 256.215C46.9785 271.703 35.5121 287.193 24.0378 302.681C20.1275 308.049 20.7948 311.295 26.7903 314.124C41.3218 321.089 55.9811 327.921 70.5739 334.722C71.5173 335.161 72.4605 335.601 73.4033 336.04C88.3609 343.053 103.348 350.049 118.335 357.046C133.322 364.043 148.309 371.04 163.266 378.052ZM124.662 313.776L130.224 309.006C127.692 305.773 126.02 303.247 125.209 301.428C123.506 297.607 124.426 292.944 127.969 287.439C129.453 285.142 130.997 282.49 132.601 279.485C134.297 276.439 135.764 273.495 137.005 270.652C138.337 267.768 139.015 264.521 139.041 260.911C139.159 257.26 138.426 253.661 136.845 250.114C133.803 243.291 129.061 239.135 122.617 237.646C116.133 236.066 109.162 236.939 101.703 240.264C97.4272 242.171 93.279 244.729 89.2579 247.939C85.1964 251.058 82.1913 253.979 80.2427 256.702C80.5573 257.652 81.4243 259.719 82.8438 262.903C84.2227 265.996 85.9046 268.79 87.8895 271.285L95.6227 268.819C93.847 263.613 92.8369 260.247 92.5924 258.72C92.3479 257.193 92.5084 256.086 93.0739 255.398C95.154 252.726 98.3317 250.436 102.607 248.53C106.882 246.624 111.099 246.053 115.256 246.817C119.504 247.54 122.5 249.857 124.244 253.769C125.947 257.589 126.406 261.31 125.622 264.931C124.928 268.512 123.643 271.866 121.766 274.993C119.888 278.12 117.991 281.201 116.073 284.237C111.288 291.604 109.91 297.562 111.937 302.11C113.641 305.931 117.882 309.819 124.662 313.776ZM145.21 334.548C146.016 332.444 145.912 330.255 144.899 327.98C142.83 323.341 139.249 322.157 134.155 324.428C131.608 325.564 129.911 327.138 129.064 329.152C128.267 331.033 128.376 333.111 129.39 335.386C130.403 337.66 131.942 339.155 134.006 339.87C136.12 340.454 138.314 340.239 140.589 339.225C142.954 338.171 144.494 336.612 145.21 334.548Z" fill="#F8F8F8"/>
</svg>
