<svg width="480" height="480" viewBox="0 0 480 480" fill="none" xmlns="http://www.w3.org/2000/svg">
<g clip-path="url(#clip0_1452_2945)">
<path d="M422.069 12.4138C392.946 12.4138 368.839 34.0386 364.8 62.069H331.034V95.1724C331.034 99.7407 327.335 103.448 322.759 103.448C318.182 103.448 314.483 99.7407 314.483 95.1724V62.069H297.931V111.724C297.931 116.292 294.232 120 289.655 120C285.079 120 281.379 116.292 281.379 111.724V62.069H115.2C111.161 34.0386 87.0538 12.4138 57.931 12.4138C25.9945 12.4138 0 38.4 0 70.3448V409.655C0 441.6 25.9945 467.586 57.931 467.586H140.69V417.931C140.69 413.363 144.389 409.655 148.966 409.655C153.542 409.655 157.241 413.363 157.241 417.931V467.586H173.793V442.759C173.793 438.19 177.492 434.483 182.069 434.483C186.646 434.483 190.345 438.19 190.345 442.759V467.586H422.069C454.005 467.586 480 441.6 480 409.655V70.3448C480 38.4 454.005 12.4138 422.069 12.4138ZM99.3103 369.145C88.7917 358.403 74.1269 351.724 57.931 351.724C41.7352 351.724 27.0703 358.403 16.5517 369.145V70.3448C16.5517 47.5283 35.1145 28.9655 57.931 28.9655C80.7476 28.9655 99.3103 47.5283 99.3103 70.3448V369.145ZM154.817 208.61L143.114 196.908L162.091 177.931L143.114 158.955L154.817 147.252L173.793 166.229L192.77 147.252L204.472 158.955L185.495 177.931L204.472 196.908L192.77 208.61L173.793 189.633L154.817 208.61ZM176.921 247.953C173.396 247.953 170.143 245.694 169.026 242.16C166.701 234.761 165.517 227.073 165.517 219.31C165.517 214.742 169.217 211.035 173.793 211.035C178.37 211.035 182.069 214.742 182.069 219.31C182.069 225.385 182.988 231.401 184.817 237.194C186.19 241.556 183.766 246.199 179.404 247.572C178.577 247.829 177.741 247.953 176.921 247.953ZM217.771 285.583C216.215 288.174 213.476 289.606 210.67 289.606C209.222 289.606 207.749 289.225 206.417 288.422C197.594 283.126 189.906 276.538 183.583 268.841C180.679 265.308 181.192 260.094 184.726 257.189C188.284 254.284 193.49 254.806 196.37 258.331C201.492 264.563 207.732 269.909 214.932 274.229C218.855 276.579 220.13 281.669 217.771 285.583ZM284.814 299.404C283.697 302.938 280.444 305.197 276.919 305.197C276.091 305.197 275.263 305.073 274.436 304.817C268.643 302.996 262.626 302.069 256.552 302.069C248.979 302.069 241.44 301.217 234.132 299.545C229.68 298.527 226.899 294.083 227.917 289.63C228.943 285.17 233.363 282.356 237.832 283.415C243.923 284.814 250.212 285.517 256.552 285.517C264.314 285.517 272.003 286.701 279.401 289.026C283.763 290.4 286.188 295.043 284.814 299.404ZM311.479 334.932C307.167 327.741 301.812 321.492 295.581 316.37C292.047 313.465 291.542 308.251 294.439 304.717C297.343 301.2 302.549 300.679 306.083 303.583C313.796 309.923 320.383 317.603 325.663 326.417C328.014 330.339 326.748 335.421 322.825 337.771C321.492 338.574 320.019 338.954 318.571 338.954C315.766 338.954 313.026 337.523 311.479 334.932ZM331.034 384.828C326.458 384.828 322.759 381.12 322.759 376.552C322.759 370.196 322.055 363.906 320.657 357.84C319.63 353.379 322.411 348.943 326.872 347.917C331.324 346.908 335.76 349.672 336.786 354.124C338.458 361.407 339.31 368.954 339.31 376.552C339.31 381.12 335.611 384.828 331.034 384.828ZM463.448 369.145C452.93 358.403 438.265 351.724 422.069 351.724C405.873 351.724 391.208 358.403 380.69 369.145V70.3448C380.69 47.5283 399.252 28.9655 422.069 28.9655C444.885 28.9655 463.448 47.5283 463.448 70.3448V369.145Z" fill="#F8F8F8"/>
</g>
<defs>
<clipPath id="clip0_1452_2945">
<rect width="480" height="480" fill="white"/>
</clipPath>
</defs>
</svg>
