<svg width="24" height="24" viewBox="0 0 24 24" fill="none" xmlns="http://www.w3.org/2000/svg">
<path fill-rule="evenodd" clip-rule="evenodd" d="M3.47168 8.25445C2.2525 8.25445 1.32307 9.39159 1.52929 10.5821L3.23584 20.4332C3.44472 21.639 4.51194 22.5045 5.72168 22.5045H18.2974C19.5083 22.5045 20.5571 21.6336 20.7803 20.4434C20.7808 20.44 20.7813 20.4366 20.7817 20.4331L22.4868 10.5923V10.5908C22.7106 9.39189 21.7672 8.25439 20.5474 8.25439L3.47168 8.25445ZM3.47168 9.75445H20.5474C20.8592 9.75445 21.0707 10.009 21.0132 10.3155C21.0127 10.3189 21.0122 10.3223 21.0117 10.3258L19.3052 20.171C19.212 20.6593 18.7949 21.0045 18.2974 21.0045H5.72168C5.22172 21.0045 4.79681 20.6571 4.71387 20.1783L3.00733 10.3258C2.95202 10.0065 3.1586 9.75445 3.47168 9.75445Z" fill="white"/>
<path fill-rule="evenodd" clip-rule="evenodd" d="M8.47851 1.55415C8.38633 1.58937 8.302 1.64244 8.23036 1.71031C8.15872 1.77817 8.10118 1.85951 8.06103 1.94966L5.06103 8.69966C5.02099 8.78968 4.99908 8.88671 4.99655 8.9852C4.99403 9.08369 5.01093 9.18174 5.0463 9.27369C5.08167 9.36565 5.13481 9.44972 5.20269 9.52114C5.27056 9.59255 5.35185 9.6499 5.44189 9.68989C5.53191 9.72993 5.62894 9.75184 5.72744 9.75437C5.82593 9.7569 5.92396 9.74 6.01592 9.70463C6.10788 9.66926 6.19196 9.61612 6.26338 9.54824C6.33479 9.48036 6.39213 9.39908 6.43213 9.30903L9.43213 2.55903C9.47217 2.46901 9.49407 2.37199 9.4966 2.27349C9.49913 2.175 9.48223 2.07697 9.44686 1.98501C9.41149 1.89305 9.35835 1.80896 9.29047 1.73754C9.22259 1.66613 9.14131 1.60879 9.05127 1.5688C8.86981 1.48832 8.66384 1.48304 8.47851 1.55415Z" fill="white"/>
<path fill-rule="evenodd" clip-rule="evenodd" d="M15.5405 1.55417C15.3552 1.48306 15.1492 1.48832 14.9678 1.5688C14.8777 1.60879 14.7964 1.66613 14.7286 1.73754C14.6607 1.80896 14.6075 1.89305 14.5722 1.98501C14.5368 2.07697 14.5199 2.175 14.5224 2.27349C14.525 2.37199 14.5469 2.46901 14.5869 2.55903L17.5869 9.30903C17.6677 9.49052 17.8172 9.63254 18.0025 9.70395C18.1879 9.77535 18.394 9.7703 18.5757 9.68989C18.6657 9.6499 18.747 9.59255 18.8149 9.52114C18.8828 9.44972 18.9359 9.36565 18.9713 9.27369C19.0066 9.18173 19.0235 9.0837 19.021 8.98521C19.0185 8.88672 18.9966 8.78968 18.9565 8.69966L15.9565 1.94966C15.8758 1.76787 15.7262 1.62563 15.5405 1.55417Z" fill="white"/>
<path fill-rule="evenodd" clip-rule="evenodd" d="M12 11.2544C11.8011 11.2544 11.6103 11.3334 11.4697 11.4741C11.329 11.6147 11.25 11.8055 11.25 12.0044V18.0044C11.25 18.2033 11.329 18.3941 11.4697 18.5347C11.6103 18.6754 11.8011 18.7544 12 18.7544C12.1989 18.7544 12.3897 18.6754 12.5303 18.5347C12.671 18.3941 12.75 18.2033 12.75 18.0044V12.0044C12.75 11.8055 12.671 11.6147 12.5303 11.4741C12.3897 11.3334 12.1989 11.2544 12 11.2544Z" fill="white"/>
<path fill-rule="evenodd" clip-rule="evenodd" d="M9 11.2544C8.80109 11.2544 8.61032 11.3334 8.46967 11.4741C8.32902 11.6147 8.25 11.8055 8.25 12.0044V18.0044C8.25 18.2033 8.32902 18.3941 8.46967 18.5347C8.61032 18.6754 8.80109 18.7544 9 18.7544C9.19891 18.7544 9.38968 18.6754 9.53033 18.5347C9.67098 18.3941 9.75 18.2033 9.75 18.0044V12.0044C9.75 11.8055 9.67098 11.6147 9.53033 11.4741C9.38968 11.3334 9.19891 11.2544 9 11.2544Z" fill="white"/>
<path fill-rule="evenodd" clip-rule="evenodd" d="M15 11.2544C14.8011 11.2544 14.6103 11.3334 14.4697 11.4741C14.329 11.6147 14.25 11.8055 14.25 12.0044V18.0044C14.25 18.2033 14.329 18.3941 14.4697 18.5347C14.6103 18.6754 14.8011 18.7544 15 18.7544C15.1989 18.7544 15.3897 18.6754 15.5303 18.5347C15.671 18.3941 15.75 18.2033 15.75 18.0044V12.0044C15.75 11.8055 15.671 11.6147 15.5303 11.4741C15.3897 11.3334 15.1989 11.2544 15 11.2544Z" fill="white"/>
</svg>
