<svg width="24" height="24" viewBox="0 0 24 24" fill="none" xmlns="http://www.w3.org/2000/svg">
<path d="M11.9999 0.333252C5.57135 0.333252 0.333252 5.57135 0.333252 11.9999C0.333252 18.4285 5.57135 23.6666 11.9999 23.6666C18.4285 23.6666 23.6666 18.4285 23.6666 11.9999C23.6666 5.57135 18.4285 0.333252 11.9999 0.333252ZM11.0476 7.83325C11.0476 7.35706 11.4047 6.88088 11.9999 6.88088C12.5952 6.88088 12.9523 7.23802 12.9523 7.83325V12.5952C12.9523 13.0714 12.5952 13.5475 11.9999 13.5475C11.4047 13.5475 11.0476 13.1904 11.0476 12.5952V7.83325ZM11.9999 17.357C11.4047 17.357 10.8095 16.7618 10.8095 16.1666C10.8095 15.5713 11.4047 14.9761 11.9999 14.9761C12.5952 14.9761 13.1904 15.5713 13.1904 16.1666C13.1904 16.7618 12.5952 17.357 11.9999 17.357Z" fill="#F73939"/>
</svg>
