<svg width="120" height="120" viewBox="0 0 120 120" fill="none" xmlns="http://www.w3.org/2000/svg">
<rect width="120" height="120" rx="6" fill="#1B1B26"/>
<path d="M82.3861 16.1944C82.6084 16.5725 82.8307 16.9505 82.8568 17.3416C84.1904 21.0831 85.6286 24.9158 86.8706 28.7616C88.3741 33.572 89.8775 38.3824 91.381 43.1928C92.7406 47.3254 93.9041 51.4709 95.0676 55.6165C96.3487 60.0488 97.8261 64.4682 99.1072 68.9005C99.2118 68.9918 99.1202 69.0961 99.2249 69.1873C98.6493 69.4219 97.9821 69.7607 97.3019 69.904C94.4239 71.0767 91.3367 72.0669 88.2364 72.8615C85.1361 73.6561 81.9051 73.9684 78.7396 73.7854C75.8749 73.6806 73.0757 73.0805 70.4336 71.8807C69.1126 71.2808 67.7785 70.4854 66.6406 69.677C65.0972 68.6991 63.5408 67.5256 62.089 66.4434C60.6372 65.3612 59.0808 64.1877 57.7206 63.0012C54.6994 60.55 51.7698 57.9945 48.9448 55.5302C46.6429 53.5223 44.2494 51.6187 41.9476 49.6108C41.4244 49.1545 40.8097 48.8024 40.2865 48.3461C40.1819 48.2548 40.0773 48.1635 39.9726 48.0723C40.4306 47.5509 40.9931 47.1208 41.451 46.5995C42.5631 45.5438 43.7667 44.3838 44.8788 43.3281C45.9908 42.2724 47.0113 41.321 48.1233 40.2653C49.1438 39.3139 50.1643 38.3625 51.0932 37.5153C52.2968 36.3553 53.592 35.0911 54.7956 33.9311C55.9993 32.7712 57.2029 31.6112 58.4066 30.4512C59.5186 29.3955 60.6307 28.3398 61.7427 27.2841C62.7632 26.3327 63.6921 25.4856 64.7125 24.5341C65.8246 23.4784 67.0282 22.3185 68.1403 21.2628C69.2523 20.2071 70.2728 19.2557 71.3848 18.2C72.68 16.9357 73.9753 15.6715 75.2705 14.4073C75.4536 14.1987 75.5452 14.0944 75.7284 13.8859C75.9116 13.6774 76.1078 13.6644 76.3956 13.5471C77.272 13.3908 77.9522 13.2475 78.7241 13C78.7501 13.3911 78.9464 13.3781 79.0379 13.2738C80.1889 14.2778 81.3398 15.2817 82.3861 16.1944ZM64.4193 55.5851C64.5239 55.6763 64.6286 55.7676 64.7202 55.6633C65.7404 56.1849 66.669 56.8108 67.7677 57.0326C71.2863 58.0761 74.3866 57.2814 77.1863 54.9355C78.5861 53.7625 79.7636 52.2115 80.6403 50.5822C82.2891 47.2323 83.2316 43.6346 83.4807 39.9847C83.5726 38.4074 83.3766 36.9473 82.7882 35.5133C82.3045 34.1706 81.546 33.1406 80.3165 32.4365C79.3879 31.8106 78.2891 31.5888 77.295 31.4583C75.3068 31.1972 73.5539 31.5098 71.8532 32.6045C70.1525 33.6992 68.9619 35.0547 68.2945 36.8665C67.4308 38.6914 66.9727 40.6857 67.2078 42.7324C67.3252 44.4922 68.0182 46.0175 69.3653 47.0085C70.0978 47.6473 71.0133 48.0777 72.1121 48.2995C74.3226 48.9386 76.4679 48.6 78.3387 47.1013C78.7181 46.8797 78.9013 46.6712 79.176 46.3584C78.9143 46.8667 78.8488 47.3621 78.6787 47.7661C78.0113 49.578 77.1346 51.2073 75.7478 52.5758C74.6357 53.6315 73.393 54.2049 71.8232 54.3089C69.8611 54.4389 68.1476 53.865 66.4996 52.7958C66.1858 52.522 65.8849 52.4437 65.571 52.1699C65.0737 53.5777 64.7465 54.5814 64.4193 55.5851ZM61.8153 60.8641C67.636 62.4424 73.4567 64.0207 79.2773 65.5991C79.526 64.8952 79.67 64.1 79.8271 63.5004C74.0064 61.9221 68.1857 60.3437 62.3651 58.7654C62.208 59.365 61.9593 60.0689 61.8153 60.8641Z" fill="#F78401"/>
<path d="M103.918 86.3561C103.63 86.4734 103.238 86.4994 102.858 86.721C95.5456 89.3659 88.3377 92.1022 81.025 94.7471C74.9682 97.0143 68.9114 99.2815 62.8416 101.353C58.7994 102.799 54.7572 104.246 50.8196 105.783C50.244 106.018 49.6684 106.252 49.1974 106.578C48.0462 107.047 46.869 107.125 45.6656 106.812C45.561 106.721 45.4694 106.825 45.3647 106.734C45.5479 106.525 45.7311 106.317 45.9142 106.108C48.9235 102.472 51.9327 98.8353 54.8503 95.3031C57.0353 92.6051 59.3249 89.9984 61.5098 87.3004C63.6948 84.6024 65.8797 81.9044 68.0778 79.4019C69.0852 78.2549 69.988 77.0167 70.9954 75.8697C71.087 75.7655 71.087 75.7655 71.2832 75.7525C74.7101 76.9002 78.1765 77.1615 81.6168 77.0318C85.5411 76.7717 89.23 75.9381 92.9974 74.8046C95.5091 74.049 97.8115 73.1108 100.205 72.0684C100.205 72.0684 100.297 71.9641 100.402 72.0554C100.637 72.629 100.872 73.2026 101.108 73.7762C102.611 77.1136 104.311 80.438 106.391 83.5409C106.391 83.5409 106.495 83.6321 106.6 83.7234C105.566 84.4793 104.742 85.4177 103.918 86.3561ZM87.6848 85.2714C84.6761 85.9617 81.6544 86.4566 78.6457 87.1469C75.9248 87.72 73.2039 88.2931 70.496 89.0618C68.2722 89.7001 66.2576 90.521 64.3737 91.8243C63.615 92.2673 62.9608 92.8017 62.4244 93.6228C61.8879 94.444 62.0317 95.1219 62.8557 95.6565C63.4704 96.0086 64.0721 96.1651 64.6738 96.3216C66.2696 96.6087 67.7477 96.6089 69.4221 96.5962L69.6183 96.5832C70.5733 96.1271 71.6198 95.5668 72.5748 95.1107L72.6664 95.0064C72.6664 95.0064 72.5748 95.1107 72.4702 95.0194C70.9005 95.1234 69.3307 95.2274 67.8396 95.0316C67.3425 94.9664 66.7408 94.8098 66.2307 94.549C65.7206 94.2882 65.4853 93.7146 65.8516 93.2975C66.1263 92.9847 66.4011 92.6719 66.6758 92.3591C67.7094 91.6032 68.9521 91.0299 70.1033 90.5608C72.3141 89.7269 74.6426 89.1798 76.9841 88.8282C81.2617 87.9556 85.343 87.0959 89.6206 86.2233C89.8168 86.2103 90.1046 86.093 90.1962 85.9888C90.7718 85.7542 91.3343 85.3241 91.9099 85.0896C92.1977 84.9723 92.2893 84.8681 92.5771 84.7508L92.4725 84.6595C89.6472 83.6683 86.6257 82.6901 83.8004 81.6989C83.6958 81.6076 83.6042 81.7119 83.408 81.7249C82.8324 81.9595 82.2699 82.3895 81.6943 82.6241C81.4065 82.7414 81.2233 82.9499 80.9355 83.0672C83.3423 83.6933 85.4612 84.4367 87.6848 85.2714Z" fill="#F78401"/>
<path d="M13 48.4847C13.1046 48.576 13.1046 48.576 13.2093 48.6673C13.4185 48.8498 13.7324 49.1236 14.0333 49.2019C15.956 49.9583 17.8526 50.3236 19.9325 50.4804C22.7056 50.6894 25.5702 50.7942 28.4218 50.7035C31.4697 50.5997 34.4129 50.4047 37.3692 50.4052C37.5654 50.3922 37.7746 50.5747 38.0755 50.653C39.9327 51.9048 41.6984 53.2608 43.3725 54.7211C45.9882 57.0028 48.5124 59.3887 51.3244 61.6574C53.9401 63.9391 56.6475 66.1166 59.4594 68.3853C60.8196 69.5717 62.4676 70.6409 63.9194 71.7232C65.4758 72.8966 67.2154 73.8616 69.0465 74.7223C69.0465 74.7223 69.0465 74.7223 69.1512 74.8135C68.8764 75.1263 68.6932 75.3349 68.4185 75.6477C66.4167 78.1371 64.4019 80.4311 62.4001 82.9205C59.8488 86.0356 57.2059 89.255 54.6546 92.3701C52.1033 95.4851 49.552 98.6002 46.8961 101.624C45.7971 102.875 44.8027 104.218 43.6121 105.573C43.5205 105.678 43.4289 105.782 43.3243 105.691C42.3171 105.364 41.5847 104.726 40.7477 103.995C39.793 102.979 39.1261 101.844 38.6553 100.697C36.3801 96.1342 34.0132 91.6756 31.6334 87.0214C29.2535 82.3673 26.9782 77.8044 24.5983 73.1502C22.3231 68.5874 19.9432 63.9332 17.5763 59.4746C16.3471 57.2974 15.3272 55.3028 14.3072 53.3082C13.9672 52.6433 13.8235 51.9654 13.6797 51.2875C13.3267 50.4271 13.2614 49.4494 13 48.4847ZM41.969 76.5165C42.3614 76.4905 42.7539 76.4645 43.1463 76.4385C44.9122 76.3214 45.9196 75.1745 46.1031 73.4929C46.1425 72.6065 45.9857 71.7331 45.8288 70.8597C45.1097 68.9433 43.7234 67.3657 41.9708 66.2053C40.4275 65.2273 38.6093 64.5622 36.9089 64.1838C35.8102 63.962 34.6198 63.8445 33.4556 64.1181C32.0951 64.4046 31.2709 65.343 30.9698 66.7378C30.7472 67.8328 30.9171 68.9017 31.2832 69.9577C31.9892 71.6785 33.1532 72.878 34.605 73.9602C34.8142 74.1427 35.1151 74.221 35.3243 74.4035C34.7357 74.4425 34.1471 74.4815 33.5584 74.5205C31.8971 74.7288 30.8897 75.8758 30.6017 77.4661C30.4707 78.4568 30.5359 79.4345 30.7974 80.3992C31.451 82.8109 32.8503 84.584 35.0084 85.914C36.5518 86.8919 38.1737 87.5701 39.9787 88.0397C41.1821 88.3527 42.4771 88.5615 43.7459 88.3792C45.4072 88.171 46.5193 87.1153 46.8989 85.4207C47.1345 84.5213 47.1739 83.6349 47.0171 82.7614C46.6904 80.8191 45.7096 79.411 44.2448 78.1333C43.3162 77.5074 42.5968 77.0641 41.969 76.5165Z" fill="#F5A73F"/>
<path d="M71.0584 14.7846C70.5089 15.4102 69.9464 15.8403 69.3969 16.4659C68.468 17.313 67.6437 18.2515 66.7148 19.0986C65.5112 20.2586 64.216 21.5228 63.0123 22.6828C61.9919 23.6342 60.9845 24.7812 59.964 25.7326C58.7604 26.8926 57.4651 28.1568 56.2615 29.3168C55.1494 30.3725 54.2336 31.4152 53.1216 32.4709C51.9179 33.6308 50.7143 34.7908 49.5107 35.9508C48.4902 36.9022 47.4828 38.0491 46.4623 39.0006C45.2587 40.1605 43.9634 41.4248 42.7598 42.5847C41.5562 43.7447 40.3525 44.9047 39.1489 46.0646C38.691 46.586 38.0369 47.1203 37.5789 47.6417C37.4874 47.746 37.1996 47.8632 37.1996 47.8632C36.3231 48.0195 35.5383 48.0715 34.7534 48.1235C31.7056 48.2273 28.5531 48.2398 25.309 48.3565C23.0461 48.4083 20.77 48.2645 18.481 47.9251C17.2906 47.8076 16.0872 47.4946 14.9755 47.0772C14.1645 46.7382 13.6283 46.0863 13.2753 45.2259C12.9222 44.3654 12.9616 43.479 13.1057 42.6839C13.3021 41.1978 13.891 39.6858 14.6892 38.3563C15.592 37.1181 16.691 35.8668 17.6984 34.7199C17.79 34.6156 17.8816 34.5113 17.9862 34.6026C24.3308 32.2182 30.767 29.7295 37.2162 27.4363C43.4692 25.1562 49.7222 22.876 55.9753 20.5958C60.9724 18.6935 65.9696 16.7912 71.0715 14.9801C71.0584 14.7846 71.0584 14.7846 71.0584 14.7846ZM44.8023 31.8437C44.8939 31.7394 44.8939 31.7394 44.9985 31.8307C47.824 31.3489 50.3226 30.3977 52.7821 28.8599C53.5409 28.4168 54.195 27.8825 54.8361 27.1526C55.2809 26.4357 55.1502 25.9534 54.4439 25.7056C54.4439 25.7056 54.3393 25.6143 54.2477 25.7186C53.7506 25.6533 53.1489 25.4968 52.5603 25.5358C50.7813 25.4573 49.12 25.6655 47.4587 25.8738C46.9747 26.0041 46.5823 26.0301 46.1113 26.3559C45.5488 26.786 44.8816 27.1248 44.3191 27.5549C44.7115 27.5289 45.1955 27.3986 45.6926 27.4639C47.1576 27.2686 48.6227 27.0733 50.2055 27.1648C50.5979 27.1388 50.8987 27.2171 51.3042 27.3866C51.7097 27.5562 51.8274 27.843 51.5657 28.3513C51.3825 28.5598 51.2909 28.6641 51.1078 28.8727C49.1454 30.4757 46.9346 31.3096 44.3838 31.4786C43.4027 31.5436 42.317 31.5174 41.4275 31.4781C41.2313 31.4911 41.2313 31.4911 41.1397 31.5954C40.6688 31.9212 40.2894 32.1427 39.8184 32.4685C39.5306 32.5858 39.2559 32.8986 38.9681 33.0159C39.7529 32.9639 40.4462 33.0161 41.1395 33.0684C41.6365 33.1337 42.1336 33.1989 42.5391 33.3685C42.9445 33.538 43.0622 33.8248 42.7875 34.1376C42.6043 34.3462 42.5127 34.4504 42.3295 34.659C41.4922 35.4019 40.6419 35.9492 39.6869 36.4053C37.2144 37.7475 34.4935 38.3206 31.7204 38.1116C30.7263 37.9811 29.8368 37.9418 29.0914 37.1074C28.241 37.6547 27.2991 38.3064 26.3441 38.7624C27.0635 39.2058 27.7567 39.258 28.5546 39.4016C30.5429 39.6626 32.505 39.5326 34.3495 39.1158C37.0704 38.5427 39.7652 37.5785 42.1331 36.145C43.2712 35.4804 44.4094 34.8158 45.3382 33.9686C45.613 33.6558 45.8877 33.343 45.9663 33.0432C46.0448 32.7434 45.9271 32.4566 45.7179 32.274C45.1162 32.1175 45.0116 32.0262 44.8023 31.8437Z" fill="#F4C672"/>
<path d="M108 81.0774C107.791 80.8949 107.778 80.6993 107.568 80.5168C105.685 77.4009 103.907 74.3764 102.508 71.1302C101.815 69.6049 101.318 68.0666 100.808 66.3328C98.6511 59.1107 96.4024 51.9928 94.1407 44.6794C93.0034 40.9249 91.9706 37.2617 90.7417 33.6115C90.8463 33.7028 90.9509 33.794 90.8594 33.8983C93.1999 39.4389 95.5403 44.9794 98.077 50.507C100.065 55.1872 102.157 59.9586 104.144 64.6387C105.778 68.4585 106.824 72.3172 107.294 76.4105C107.49 77.8705 107.595 79.4348 107.791 80.8949C107.987 80.8819 107.987 80.8819 108 81.0774Z" fill="#F78401"/>
<path d="M72.3758 36.0069C73.7496 34.4428 75.581 33.8305 77.5953 34.4826C79.2042 34.9652 79.9757 36.1907 80.1717 37.6507C80.3807 39.3063 79.988 40.8053 79.3991 42.3174C78.8887 43.5296 78.0775 44.6635 76.9394 45.3282C75.9975 45.9798 74.9248 46.1491 73.8261 45.9273C73.5252 45.849 73.316 45.6665 73.1067 45.4839C72.3873 45.0406 71.7596 44.493 71.0402 44.0496C70.8309 43.8671 70.7263 43.7758 70.6086 43.489C70.2425 42.4331 70.1773 41.4554 70.3999 40.3604C70.701 38.9657 71.1067 37.6622 72.0095 36.4239L72.1011 36.3197C72.1011 36.3197 72.1927 36.2154 72.3758 36.0069Z" fill="#F78401"/>
<path d="M35.859 83.8936C34.0803 82.3421 33.3742 80.6212 33.7278 78.5356C33.9373 77.2451 34.8662 76.3979 36.2397 76.3069C37.5216 76.3202 38.725 76.6332 39.7452 77.1548C41.1709 77.846 42.4264 78.9412 43.1195 80.4665C43.5771 81.4182 43.7339 82.2916 43.6029 83.2823C43.5111 84.8596 42.386 85.7197 40.8033 85.6282C39.5213 85.615 38.4095 85.1976 37.2847 84.5847C36.683 84.4282 36.2645 84.0631 35.859 83.8936Z" fill="#F4A73F"/>
<path d="M35.5078 72.722C34.5661 71.9006 33.8862 70.5708 34.1612 68.785C34.3707 67.4945 35.208 66.7516 36.4899 66.7648C37.7718 66.7781 38.9882 67.2867 40.1131 67.8996C41.2379 68.5124 41.9834 69.3468 42.6503 70.4811C43.0033 71.3415 43.0555 72.1236 43.0161 73.0101C42.8851 74.0007 42.244 74.7306 41.0668 74.8086C40.2819 74.8606 39.484 74.7171 38.7777 74.4693C37.4697 74.065 36.5541 73.6346 35.5078 72.722Z" fill="#F4A73F"/>
</svg>
