<svg width="32" height="32" viewBox="0 0 32 32" fill="none" xmlns="http://www.w3.org/2000/svg">
<path d="M14.667 10.6667H26.667" stroke="#FEFEFE" stroke-width="2.66667" stroke-linecap="round"/>
<path d="M5.3335 21.3333H18.6668" stroke="#FEFEFE" stroke-width="2.66667" stroke-linecap="round"/>
<path d="M5.3335 10.6667C5.3335 12.8759 7.12436 14.6667 9.3335 14.6667C11.5426 14.6667 13.3335 12.8759 13.3335 10.6667C13.3335 8.45761 11.5426 6.66675 9.3335 6.66675C7.12436 6.66675 5.3335 8.45761 5.3335 10.6667Z" stroke="#FEFEFE" stroke-width="2.66667" stroke-linecap="round"/>
<path d="M18.667 21.3333C18.667 23.5424 20.4579 25.3333 22.667 25.3333C24.8761 25.3333 26.667 23.5424 26.667 21.3333C26.667 19.1241 24.8761 17.3333 22.667 17.3333C20.4579 17.3333 18.667 19.1241 18.667 21.3333Z" stroke="#FEFEFE" stroke-width="2.66667" stroke-linecap="round"/>
</svg>
