<svg width="25" height="25" viewBox="0 0 25 25" fill="none" xmlns="http://www.w3.org/2000/svg">
<path fill-rule="evenodd" clip-rule="evenodd" d="M12.4994 0C5.59647 0 0 5.59679 0 12.5006C0 18.0234 3.58077 22.7087 8.5484 24.3606C9.17404 24.4763 9.4016 24.0913 9.4016 23.759C9.4016 23.4628 9.39071 22.6772 9.38526 21.633C5.90801 22.3891 5.17436 19.957 5.17436 19.957C4.60577 18.5131 3.78622 18.1292 3.78622 18.1292C2.65128 17.3542 3.87244 17.3692 3.87244 17.3692C5.12692 17.458 5.78718 18.657 5.78718 18.657C6.90192 20.5673 8.71314 20.0144 9.425 19.6965C9.53814 18.8872 9.86186 18.3375 10.2186 18.0244C7.44327 17.709 4.52532 16.6365 4.52532 11.8468C4.52532 10.4817 5.01218 9.3657 5.81154 8.49167C5.68365 8.17692 5.25385 6.90609 5.93429 5.18429C5.93429 5.18429 6.98365 4.8484 9.37212 6.46667C10.3686 6.18814 11.4381 6.04904 12.5013 6.04487C13.5628 6.04936 14.6327 6.18814 15.6304 6.46667C18.0173 4.8484 19.0651 5.18429 19.0651 5.18429C19.7471 6.90609 19.3176 8.17692 19.1894 8.49167C19.9907 9.3657 20.474 10.4817 20.474 11.8468C20.474 16.6478 17.5519 17.7054 14.7673 18.0138C15.2154 18.4 15.6154 19.1644 15.6154 20.3308C15.6154 22.001 15.6003 23.3487 15.6003 23.7587C15.6003 24.0936 15.825 24.483 16.4596 24.359C21.4218 22.7035 25 18.0218 25 12.5006C25 5.59679 19.4035 0 12.4994 0Z" fill="#F5A73F"/>
</svg>
