<svg width="23" height="21" viewBox="0 0 23 21" fill="none" xmlns="http://www.w3.org/2000/svg">
<path d="M19.8334 13.4516C21.1961 11.8872 21.9167 10.5 21.9167 10.5C21.9167 10.5 18.1288 3.20833 11.5 3.20833C11.1446 3.20833 10.7973 3.2293 10.4584 3.26898C10.1019 3.31071 9.75462 3.37315 9.41671 3.45367M11.5 7.375C11.8652 7.375 12.2159 7.43766 12.5417 7.55282C13.4296 7.86666 14.1334 8.57042 14.4472 9.45833C14.5623 9.78417 14.625 10.1348 14.625 10.5M2.12504 1.125L20.875 19.875M11.5 13.625C11.1348 13.625 10.7842 13.5623 10.4584 13.4472C9.57046 13.1333 8.86669 12.4296 8.55285 11.5417C8.49364 11.3742 8.44831 11.2001 8.41824 11.0208M3.31984 7.375C2.99876 7.73386 2.71081 8.08584 2.45696 8.41667C1.5551 9.59187 1.08337 10.5 1.08337 10.5C1.08337 10.5 4.87125 17.7917 11.5 17.7917C11.8555 17.7917 12.2027 17.7707 12.5417 17.731" stroke="#BDBDBD" stroke-width="1.8" stroke-linecap="round" stroke-linejoin="round"/>
</svg>
