<svg width="25" height="24" viewBox="0 0 25 24" fill="none" xmlns="http://www.w3.org/2000/svg">
<path d="M22.6204 5.71956C21.424 3.86342 19.7369 2.37414 17.7416 1.41286L16.876 3.1765C20.3577 4.85398 22.5206 8.27733 22.5206 12.1107C22.5206 17.5851 18.0253 22.0388 12.5 22.0388C6.97466 22.0388 2.47939 17.5851 2.47939 12.1107C2.47939 8.8522 4.12222 5.80644 6.77085 3.96742L10.2654 7.4464V0H2.7856L5.35571 2.55862C4.19704 3.41001 3.19613 4.46398 2.40602 5.67883C1.15914 7.59616 0.5 9.82021 0.5 12.1107C0.5 18.6665 5.88316 24 12.5 24C19.1168 24 24.5 18.6665 24.5 12.1107C24.5 9.83734 23.85 7.62734 22.6204 5.71956Z" fill="#FEFEFE"/>
</svg>
