<svg width="343" height="82" viewBox="0 0 343 82" fill="none" xmlns="http://www.w3.org/2000/svg">
<g clip-path="url(#clip0_155_307)">
<path d="M326.255 32.5681C326.172 32.517 326.088 32.4659 326.033 32.3893C325.754 32.0828 320.608 27.127 317.187 23.8573C315.463 22.5034 314.489 19.9489 314.517 19.0293C314.378 18.2118 312.82 10.395 308.203 9.44988C308.064 9.42434 307.925 9.39879 307.785 9.37325C306.756 9.24552 305.866 9.39879 305.032 9.90969C304.809 10.063 304.559 10.2162 304.336 10.4206C303.224 11.4168 302.473 12.8729 302.028 13.8947C301.833 14.329 301.666 14.7632 301.499 15.1464C301.36 15.5296 301.221 15.8361 301.11 16.0916C300.025 18.4417 297.494 18.6205 297.382 18.6205H297.271L297.16 18.595C295.046 18.2118 293.711 16.9601 292.654 15.9639C291.569 14.9421 290.901 14.3801 289.9 14.4312C289.344 14.4567 288.676 14.6866 287.925 15.1464C287.842 15.1975 287.73 15.2486 287.647 15.3252C287.258 15.5551 286.896 15.8361 286.479 16.1427C284.087 17.9819 287.536 23.4741 289.093 25.4411C290.15 26.6672 295.213 32.6703 293.878 35.5569C292.07 39.5164 288.565 49.5555 288.954 51.4459C289.121 52.3144 289.232 52.4932 289.399 52.8253C289.455 52.9275 289.511 53.0041 289.566 53.1318C289.733 53.4895 290.039 53.7449 290.429 53.8726C292.07 54.4346 296.186 55.8141 298.606 56.3505C301.165 56.9125 302.111 55.8396 302.139 55.7885L305.032 52.0334C305.366 51.6247 305.866 51.3948 306.45 51.4459C307.007 51.497 307.48 51.8035 307.702 52.2633C308.62 54.1025 310.289 57.3979 310.845 58.9306C311.374 60.3611 311.874 60.9997 312.041 61.1785C313.015 61.5617 319.106 63.8863 323.251 64.9592C324.002 65.1635 324.642 65.2913 325.17 65.3679C325.615 65.4445 326.172 65.4701 326.394 65.2146C327.062 64.5249 326.227 62.0215 325.782 60.6676C325.643 60.2334 325.504 59.8246 325.421 59.467C324.92 57.6278 321.582 49.1724 320.136 45.8004C319.579 44.4721 319.635 43.016 320.358 41.8154C320.414 41.7132 320.469 41.6366 320.525 41.5344C320.664 41.3556 320.831 41.1768 320.998 40.998C321.638 40.436 322.472 40.1039 323.362 40.0528C324.753 40.0017 328.063 39.6952 328.397 37.8815L328.425 37.7537C329.704 34.7394 326.617 32.798 326.255 32.5681Z" fill="#F78401"/>
<path d="M295.519 12.3874L292.348 13.4859C292.904 13.8435 293.405 14.3033 293.878 14.7631C294.851 15.6827 295.88 16.6279 297.466 16.9855C297.855 16.9344 299.107 16.6535 299.691 15.3762C299.802 15.1463 299.914 14.8398 300.053 14.4821C300.136 14.2522 300.247 14.0223 300.331 13.7669L298.551 12.694C297.66 12.1575 296.52 12.0298 295.519 12.3874Z" fill="#F78401"/>
<path d="M342.082 30.5245L330.093 17.471L328.842 11.8C327.84 7.27855 322.667 6.35893 321.804 6.2312C320.859 6.41002 315.296 7.43182 310.567 8.35144C314.878 10.7271 316.213 17.6754 316.38 18.5694C316.408 18.6461 316.408 18.7483 316.38 18.8249C316.436 19.2592 317.076 21.3538 318.522 22.4523L318.578 22.5034C319.969 23.8317 326.616 30.218 327.451 31.0609C329.148 32.1083 331.54 34.6883 330.26 37.9325C330.205 38.2391 330.093 38.5201 329.927 38.8011C331.234 38.5201 332.792 38.1625 334.6 37.7282C334.739 37.7026 334.878 37.6516 335.017 37.626L335.267 37.5749C337.826 36.9618 339.718 36.4509 340.83 36.0678C341.859 35.7101 342.499 35.1737 342.805 34.4329C343.417 32.8746 342.277 30.8566 342.082 30.5245Z" fill="#F4C672"/>
<path d="M336.936 45.1618C335.684 42.8883 334.878 41.0746 334.544 39.7974C333.292 40.0528 332.18 40.2316 331.15 40.3849C329.398 40.6403 323.14 41.7899 322.778 42.173L322.722 42.2241C322.611 42.3263 322.528 42.403 322.472 42.5051C322.444 42.5562 322.389 42.6329 322.361 42.6839C321.888 43.4758 321.832 44.4721 322.222 45.3917C323.696 48.8914 327.034 57.3212 327.562 59.2371C327.646 59.5437 327.785 59.9524 327.924 60.3611C328.397 61.8172 328.953 63.5031 328.814 64.8315L339.245 62.0982C341.693 59.5692 340.663 52.059 336.936 45.1618Z" fill="#F5A73F"/>
</g>
<path d="M51.6756 2.67854C51.8393 2.95806 52.0031 3.23757 52.0224 3.5267C53.0049 6.29283 54.0645 9.12642 54.9796 11.9696C56.0873 15.5261 57.195 19.0825 58.3027 22.6389C59.3044 25.6941 60.1616 28.759 61.0188 31.8239C61.9627 35.1008 63.0512 38.3681 63.9951 41.645C64.0722 41.7124 64.0047 41.7895 64.0818 41.857C63.6577 42.0304 63.1661 42.2809 62.665 42.3868C60.5446 43.2538 58.27 43.9859 55.9858 44.5734C53.7017 45.1609 51.3212 45.3917 48.9889 45.2564C46.8783 45.1789 44.816 44.7353 42.8694 43.8483C41.8961 43.4048 40.9131 42.8167 40.0748 42.219C38.9377 41.496 37.791 40.6285 36.7214 39.8284C35.6517 39.0283 34.505 38.1607 33.5029 37.2835C31.277 35.4713 29.1185 33.582 27.0371 31.7601C25.3412 30.2757 23.5778 28.8683 21.8818 27.3838C21.4964 27.0464 21.0435 26.7861 20.658 26.4488C20.581 26.3813 20.5039 26.3138 20.4268 26.2463C20.7642 25.8609 21.1786 25.5429 21.516 25.1575C22.3353 24.377 23.2221 23.5194 24.0414 22.7389C24.8608 21.9584 25.6126 21.255 26.4319 20.4745C27.1838 19.7711 27.9356 19.0677 28.62 18.4414C29.5068 17.5838 30.4611 16.6492 31.3479 15.7916C32.2346 14.934 33.1214 14.0764 34.0082 13.2188C34.8276 12.4384 35.6469 11.6579 36.4662 10.8774C37.2181 10.174 37.9024 9.54765 38.6543 8.84425C39.4736 8.06376 40.3604 7.20618 41.1797 6.42569C41.999 5.6452 42.7509 4.94179 43.5702 4.1613C44.5245 3.22663 45.4787 2.29196 46.433 1.3573C46.568 1.20312 46.6354 1.12603 46.7704 0.971856C46.9053 0.81768 47.0499 0.808069 47.2619 0.721369C47.9077 0.605832 48.4088 0.499907 48.9775 0.316895C48.9967 0.606022 49.1413 0.596409 49.2087 0.519321C50.0567 1.26155 50.9047 2.00379 51.6756 2.67854ZM38.4382 31.8007C38.5153 31.8681 38.5924 31.9356 38.6599 31.8585C39.4115 32.2442 40.0957 32.7069 40.9052 32.8708C43.4976 33.6423 45.7818 33.0548 47.8445 31.3204C48.8758 30.4532 49.7434 29.3065 50.3893 28.102C51.6041 25.6253 52.2985 22.9655 52.482 20.2671C52.5497 19.1009 52.4053 18.0215 51.9718 16.9613C51.6154 15.9686 51.0566 15.2071 50.1507 14.6866C49.4666 14.2238 48.657 14.0599 47.9246 13.9634C46.4598 13.7704 45.1683 14.0014 43.9153 14.8108C42.6623 15.6201 41.7851 16.6222 41.2933 17.9618C40.657 19.3109 40.3195 20.7854 40.4927 22.2985C40.5792 23.5995 41.0898 24.7272 42.0823 25.4598C42.6219 25.9322 43.2965 26.2503 44.106 26.4143C45.7347 26.8868 47.3152 26.6365 48.6936 25.5285C48.9731 25.3647 49.1081 25.2105 49.3105 24.9792C49.1177 25.3551 49.0694 25.7213 48.9441 26.02C48.4523 27.3595 47.8064 28.5641 46.7847 29.5759C45.9654 30.3564 45.0497 30.7802 43.8932 30.8571C42.4476 30.9533 41.1851 30.529 39.971 29.7385C39.7397 29.5361 39.518 29.4782 39.2868 29.2758C38.9204 30.3166 38.6793 31.0586 38.4382 31.8007ZM36.5197 35.7035C40.8082 36.8704 45.0966 38.0373 49.3851 39.2041C49.5683 38.6838 49.6744 38.0959 49.7901 37.6526C45.5017 36.4857 41.2132 35.3188 36.9247 34.1519C36.809 34.5952 36.6258 35.1156 36.5197 35.7035Z" fill="#F78401"/>
<path d="M67.5394 54.5502C67.3274 54.6369 67.0383 54.6561 66.7587 54.8199C61.371 56.7753 56.0605 58.7983 50.6728 60.7537C46.2103 62.4299 41.7479 64.106 37.2758 65.6376C34.2977 66.7068 31.3195 67.7761 28.4184 68.9128C27.9944 69.0862 27.5703 69.2596 27.2233 69.5005C26.3751 69.8473 25.5077 69.9049 24.6211 69.6735C24.5441 69.606 24.4766 69.6831 24.3995 69.6156C24.5344 69.4615 24.6694 69.3073 24.8043 69.1531C27.0214 66.4646 29.2385 63.7762 31.3881 61.1648C32.9979 59.1701 34.6848 57.2429 36.2946 55.2482C37.9044 53.2536 39.5142 51.2589 41.1337 49.4088C41.8759 48.5608 42.541 47.6454 43.2833 46.7974C43.3507 46.7203 43.3507 46.7203 43.4953 46.7107C46.0202 47.5592 48.5741 47.7524 51.1087 47.6565C54 47.4643 56.7179 46.8479 59.4936 46.01C61.3441 45.4513 63.0404 44.7577 64.8042 43.987C64.8042 43.987 64.8717 43.9099 64.9488 43.9774C65.1222 44.4015 65.2956 44.8256 65.469 45.2496C66.5769 47.717 67.8293 50.1748 69.3613 52.4688C69.3613 52.4688 69.4383 52.5363 69.5154 52.6037C68.754 53.1626 68.1467 53.8564 67.5394 54.5502ZM55.5795 53.7482C53.3628 54.2586 51.1364 54.6244 48.9197 55.1348C46.9151 55.5585 44.9104 55.9822 42.9153 56.5505C41.2769 57.0224 39.7926 57.6293 38.4046 58.5928C37.8456 58.9204 37.3637 59.3154 36.9684 59.9225C36.5732 60.5296 36.6791 61.0308 37.2862 61.426C37.7391 61.6863 38.1824 61.8021 38.6257 61.9178C39.8015 62.13 40.8905 62.1302 42.1241 62.1208L42.2687 62.1112C42.9723 61.774 43.7433 61.3597 44.4469 61.0225L44.5144 60.9454C44.5144 60.9454 44.4469 61.0225 44.3698 60.955C43.2133 61.0319 42.0568 61.1088 40.9582 60.9641C40.5919 60.9158 40.1486 60.8001 39.7728 60.6073C39.397 60.4145 39.2236 59.9904 39.4935 59.682C39.6959 59.4508 39.8983 59.2195 40.1008 58.9882C40.8622 58.4294 41.7779 58.0055 42.626 57.6587C44.2549 57.0422 45.9704 56.6377 47.6956 56.3778C50.8471 55.7327 53.8541 55.0971 57.0057 54.4519C57.1502 54.4423 57.3623 54.3556 57.4298 54.2785C57.8538 54.1051 58.2683 53.7872 58.6924 53.6138C58.9044 53.5271 58.9719 53.45 59.1839 53.3633L59.1068 53.2958C57.0253 52.563 54.7992 51.8398 52.7176 51.107C52.6405 51.0395 52.573 51.1166 52.4285 51.1262C52.0044 51.2996 51.5899 51.6176 51.1658 51.791C50.9538 51.8777 50.8189 52.0319 50.6068 52.1186C52.38 52.5815 53.9412 53.1311 55.5795 53.7482Z" fill="#F78401"/>
<path d="M0.55426 26.5513C0.631348 26.6187 0.631348 26.6187 0.708436 26.6862C0.862612 26.8212 1.09388 27.0236 1.31553 27.0815C2.73214 27.6407 4.12952 27.9108 5.66186 28.0267C7.70498 28.1812 9.81557 28.2587 11.9165 28.1916C14.1621 28.1149 16.3305 27.9707 18.5086 27.9711C18.6532 27.9615 18.8074 28.0964 19.029 28.1543C20.3974 29.0797 21.6982 30.0823 22.9317 31.1619C24.8589 32.8488 26.7186 34.6128 28.7903 36.29C30.7175 37.9769 32.7122 39.5867 34.784 41.264C35.7861 42.1412 37.0003 42.9317 38.0699 43.7318C39.2166 44.5993 40.4983 45.3127 41.8474 45.9491C41.8474 45.9491 41.8474 45.9491 41.9245 46.0165C41.7221 46.2478 41.5871 46.402 41.3847 46.6332C39.9098 48.4737 38.4254 50.1697 36.9505 52.0102C35.0708 54.3132 33.1236 56.6933 31.2439 58.9963C29.3642 61.2994 27.4845 63.6024 25.5277 65.8379C24.718 66.763 23.9854 67.7555 23.1082 68.7577C23.0407 68.8348 22.9733 68.9118 22.8962 68.8444C22.1541 68.6033 21.6145 68.131 20.9978 67.5912C20.2944 66.8393 19.803 66.0008 19.4562 65.1526C17.7799 61.7792 16.0361 58.4829 14.2827 55.042C12.5293 51.6011 10.8529 48.2277 9.09951 44.7868C7.42318 41.4134 5.66976 37.9726 3.92596 34.6762C3.02031 33.0666 2.26885 31.592 1.51739 30.1173C1.2669 29.6257 1.16097 29.1246 1.05505 28.6234C0.794948 27.9873 0.746885 27.2645 0.55426 26.5513ZM21.8976 47.2755C22.1868 47.2563 22.4759 47.2371 22.765 47.2179C24.0661 47.1314 24.8083 46.2834 24.9435 45.0402C24.9725 44.3848 24.857 43.7391 24.7414 43.0934C24.2116 41.6766 23.1902 40.5103 21.899 39.6523C20.7619 38.9293 19.4223 38.4376 18.1695 38.1578C17.36 37.9939 16.483 37.907 15.6252 38.1092C14.6229 38.3211 14.0156 39.0149 13.7938 40.046C13.6298 40.8555 13.755 41.6458 14.0247 42.4265C14.5449 43.6988 15.4024 44.5856 16.4721 45.3857C16.6262 45.5206 16.8479 45.5785 17.0021 45.7134C16.5684 45.7423 16.1347 45.7711 15.701 45.7999C14.477 45.9539 13.7348 46.8019 13.5226 47.9776C13.426 48.71 13.4741 49.4329 13.6667 50.1461C14.1483 51.9291 15.1793 53.24 16.7693 54.2233C17.9064 54.9463 19.1013 55.4476 20.4313 55.7948C21.3179 56.0263 22.2719 56.1806 23.2068 56.0459C24.4308 55.8919 25.2501 55.1114 25.5298 53.8586C25.7034 53.1936 25.7324 52.5383 25.6169 51.8925C25.3762 50.4565 24.6536 49.4155 23.5743 48.4709C22.8902 48.0082 22.3602 47.6804 21.8976 47.2755Z" fill="#F5A73F"/>
<path d="M43.3297 1.63624C42.9248 2.09877 42.5104 2.41674 42.1055 2.87926C41.4212 3.50558 40.8139 4.19937 40.1295 4.82569C39.2427 5.68327 38.2884 6.61793 37.4016 7.47551C36.6498 8.17892 35.9076 9.02689 35.1557 9.73029C34.2689 10.5879 33.3146 11.5225 32.4278 12.3801C31.6085 13.1606 30.9338 13.9315 30.1144 14.712C29.2276 15.5696 28.3409 16.4271 27.4541 17.2847C26.7022 17.9881 25.96 18.8361 25.2081 19.5395C24.3213 20.3971 23.3671 21.3317 22.4803 22.1893C21.5935 23.0469 20.7067 23.9045 19.8199 24.7621C19.4825 25.1475 19.0006 25.5426 18.6632 25.928C18.5957 26.0051 18.3837 26.0918 18.3837 26.0918C17.7379 26.2073 17.1597 26.2458 16.5814 26.2842C14.3359 26.3609 12.0132 26.3702 9.62314 26.4565C7.95585 26.4947 6.27895 26.3884 4.59244 26.1376C3.71544 26.0507 2.82884 25.8192 2.00971 25.5107C1.41223 25.26 1.01717 24.7781 0.757073 24.1419C0.496972 23.5058 0.525999 22.8505 0.632113 22.2626C0.776868 21.164 1.21075 20.0461 1.79881 19.0632C2.46395 18.1477 3.27366 17.2227 4.01589 16.3747C4.08337 16.2976 4.15084 16.2205 4.22793 16.288C8.90241 14.5252 13.6444 12.6852 18.3959 10.9899C23.0029 9.30412 27.6099 7.61837 32.2169 5.93261C35.8987 4.52619 39.5805 3.11976 43.3393 1.78081C43.3297 1.63624 43.3297 1.63624 43.3297 1.63624ZM23.9851 14.2483C24.0526 14.1712 24.0526 14.1712 24.1297 14.2387C26.2114 13.8825 28.0523 13.1793 29.8643 12.0424C30.4234 11.7148 30.9053 11.3197 31.3776 10.7801C31.7054 10.2501 31.6091 9.89351 31.0887 9.7103C31.0887 9.7103 31.0116 9.64283 30.9441 9.71992C30.5779 9.67167 30.1346 9.55594 29.7009 9.58478C28.3902 9.52672 27.1663 9.68071 25.9423 9.83469C25.5857 9.93101 25.2965 9.95023 24.9496 10.1911C24.5351 10.5091 24.0435 10.7596 23.6291 11.0775C23.9182 11.0583 24.2748 10.962 24.641 11.0102C25.7204 10.8659 26.7999 10.7215 27.966 10.7892C28.2551 10.7699 28.4768 10.8278 28.7755 10.9531C29.0742 11.0785 29.1609 11.2905 28.9681 11.6663C28.8332 11.8205 28.7657 11.8976 28.6307 12.0518C27.1849 13.2369 25.5561 13.8534 23.6767 13.9784C22.9539 14.0265 22.154 14.0071 21.4987 13.978C21.3541 13.9876 21.3541 13.9876 21.2866 14.0647C20.9396 14.3056 20.6601 14.4694 20.3131 14.7103C20.1011 14.797 19.8987 15.0282 19.6866 15.1149C20.2649 15.0765 20.7757 15.1151 21.2864 15.1538C21.6527 15.202 22.0189 15.2503 22.3176 15.3756C22.6164 15.5009 22.7031 15.713 22.5006 15.9442C22.3657 16.0984 22.2982 16.1755 22.1633 16.3297C21.5464 16.8789 20.9199 17.2836 20.2163 17.6208C18.3946 18.6131 16.3899 19.0368 14.3468 18.8823C13.6144 18.7858 12.959 18.7567 12.4098 18.1398C11.7833 18.5445 11.0893 19.0262 10.3857 19.3634C10.9157 19.6912 11.4265 19.7298 12.0144 19.836C13.4792 20.029 14.9249 19.9328 16.2838 19.6247C18.2885 19.201 20.2739 18.4882 22.0185 17.4283C22.857 16.937 23.6956 16.4456 24.38 15.8193C24.5824 15.588 24.7848 15.3568 24.8427 15.1351C24.9005 14.9135 24.8138 14.7014 24.6597 14.5665C24.2164 14.4507 24.1393 14.3833 23.9851 14.2483Z" fill="#F4C672"/>
<path d="M70.547 50.6475C70.3928 50.5126 70.3832 50.368 70.229 50.233C68.8416 47.9294 67.5313 45.6933 66.5005 43.2934C65.99 42.1657 65.6239 41.0285 65.2483 39.7466C63.659 34.4072 62.0023 29.1448 60.336 23.7379C59.498 20.9622 58.7371 18.2539 57.8317 15.5553C57.9087 15.6227 57.9858 15.6902 57.9184 15.7673C59.6427 19.8635 61.3671 23.9598 63.2361 28.0464C64.7004 31.5065 66.2418 35.0341 67.7061 38.4942C68.9103 41.3182 69.6808 44.171 70.0272 47.1972C70.1715 48.2766 70.2484 49.4331 70.3928 50.5126C70.5374 50.5029 70.5374 50.5029 70.547 50.6475Z" fill="#F78401"/>
<path d="M44.3003 17.3262C45.3125 16.1699 46.6618 15.7172 48.1459 16.1993C49.3312 16.5561 49.8997 17.4621 50.0441 18.5415C50.198 19.7655 49.9087 20.8738 49.4748 21.9916C49.0988 22.8879 48.5012 23.7262 47.6626 24.2176C46.9686 24.6993 46.1783 24.8245 45.3688 24.6605C45.1472 24.6026 44.993 24.4677 44.8388 24.3327C44.3088 24.005 43.8463 23.6001 43.3163 23.2723C43.1621 23.1374 43.085 23.0699 42.9983 22.8579C42.7286 22.0772 42.6805 21.3544 42.8445 20.5449C43.0664 19.5137 43.3653 18.55 44.0304 17.6346L44.0979 17.5575C44.0979 17.5575 44.1654 17.4804 44.3003 17.3262Z" fill="#F78401"/>
<path d="M17.396 52.7296C16.0855 51.5825 15.5653 50.3102 15.8258 48.7683C15.9801 47.8142 16.6645 47.1879 17.6765 47.1206C18.6209 47.1304 19.5075 47.3619 20.2592 47.7475C21.3096 48.2585 22.2346 49.0682 22.7452 50.1958C23.0824 50.8994 23.198 51.5452 23.1015 52.2776C23.0338 53.4437 22.2049 54.0797 21.0387 54.012C20.0943 54.0022 19.2751 53.6936 18.4464 53.2405C18.0031 53.1248 17.6947 52.8549 17.396 52.7296Z" fill="#F4A73F"/>
<path d="M17.1372 44.4702C16.4434 43.8629 15.9425 42.8798 16.1451 41.5595C16.2994 40.6054 16.9163 40.0562 17.8608 40.066C18.8053 40.0758 19.7015 40.4518 20.5302 40.9049C21.359 41.358 21.9082 41.9749 22.3996 42.8135C22.6597 43.4496 22.6981 44.0279 22.6691 44.6832C22.5726 45.4156 22.1003 45.9552 21.2329 46.0129C20.6546 46.0514 20.0668 45.9453 19.5464 45.7621C18.5827 45.4631 17.9081 45.145 17.1372 44.4702Z" fill="#F4A73F"/>
<path d="M70.1625 46.87C71.3736 46.87 72.2979 46.121 72.9354 44.623C73.5887 43.125 73.9154 40.655 73.9154 37.2128V34.7985C73.9154 32.2806 73.6126 30.3364 73.0071 28.9659C72.4015 27.5954 71.541 26.9102 70.4255 26.9102H68.6327V46.87H70.1625ZM70.9035 50.9575C70.3298 50.9575 69.4374 50.9257 68.2263 50.8619C67.0311 50.8141 65.7961 50.7902 64.5212 50.7902H60.7205V22.7748H64.5212C65.5889 22.7589 66.7522 22.719 68.0112 22.6553C69.2701 22.5916 70.2581 22.5597 70.9752 22.5597C75.0389 22.5597 77.9472 23.6991 79.7002 25.9779C81.4691 28.2568 82.3535 31.5794 82.3535 35.9459C82.3535 37.4279 82.2499 38.8383 82.0428 40.1769C81.8515 41.5155 81.485 42.8621 80.9432 44.2166C80.4014 45.5553 79.7161 46.7106 78.8874 47.6827C78.0588 48.6548 76.9592 49.4436 75.5887 50.0492C74.2182 50.6548 72.6565 50.9575 70.9035 50.9575Z" fill="#1B1B26"/>
<path d="M84.864 50.7902V35.3244L83.4298 34.4399V31.8822L88.5691 30.4719H92.5611V50.7902H84.864ZM88.3301 28.2727L84.4098 24.3286V23.4919L88.3301 19.5717H89.2384L93.326 23.4919V24.3286L89.2384 28.2727H88.3301Z" fill="#1B1B26"/>
<path d="M111.851 48.8062L111.635 49.0691C111.492 49.2285 111.237 49.4357 110.871 49.6906C110.52 49.9297 110.09 50.1767 109.58 50.4317C109.086 50.6707 108.416 50.8699 107.572 51.0293C106.743 51.2046 105.851 51.2922 104.895 51.2922C101.66 51.2922 99.1815 50.344 97.4604 48.4476C95.7553 46.5513 94.9027 44.0413 94.9027 40.9179C94.9027 39.2287 95.1656 37.6909 95.6915 36.3044C96.2174 34.918 96.9345 33.7706 97.8429 32.8623C98.7672 31.938 99.8428 31.2288 101.07 30.7348C102.313 30.2249 103.652 29.9699 105.086 29.9699C107.859 29.9699 110.01 30.6312 111.54 31.9539C111.874 32.2886 112.042 32.4559 112.042 32.4559L111.683 38.0733L108.289 38.0972L106.926 34.4399C106.799 34.4081 106.624 34.3921 106.4 34.3921C104.95 34.3921 103.946 34.8941 103.389 35.8981C102.847 36.8861 102.576 38.6072 102.576 41.0613C102.576 42.129 102.664 43.0453 102.839 43.8103C103.014 44.5593 103.213 45.125 103.436 45.5075C103.66 45.874 103.954 46.1608 104.321 46.368C104.703 46.5752 105.014 46.6947 105.253 46.7266C105.492 46.7584 105.787 46.7744 106.138 46.7744C106.934 46.7744 107.747 46.6787 108.576 46.4875C109.42 46.2963 110.114 45.9855 110.655 45.5553L111.851 48.8062Z" fill="#1B1B26"/>
<path d="M125.15 38.4319C125.15 36.408 125.046 34.9738 124.839 34.1292C124.632 33.2846 124.25 32.8623 123.692 32.8623C123.214 32.8623 122.823 32.9499 122.521 33.1252C122.218 33.2846 121.995 33.5475 121.851 33.914C121.708 34.2646 121.612 34.6312 121.564 35.0136C121.532 35.3802 121.517 35.8503 121.517 36.424V38.4319H125.15ZM123.238 51.2922C121.453 51.2922 119.899 51.0213 118.576 50.4795C117.27 49.9376 116.234 49.1807 115.469 48.2086C114.72 47.2365 114.17 46.1449 113.819 44.9338C113.469 43.7067 113.294 42.3442 113.294 40.8462C113.294 37.2765 114.202 34.5754 116.019 32.7428C117.835 30.9101 120.377 29.9938 123.644 29.9938C126.783 29.9938 129.03 30.7348 130.385 32.2169C131.739 33.683 132.417 36.0495 132.417 39.3163V41.9697H121.493V42.4238C121.493 43.3641 121.588 44.137 121.779 44.7425C121.987 45.3481 122.281 45.7943 122.664 46.0811C123.046 46.368 123.437 46.5592 123.835 46.6548C124.234 46.7505 124.72 46.7983 125.293 46.7983C125.851 46.7983 126.449 46.7266 127.086 46.5831C127.74 46.4397 128.393 46.2166 129.046 45.9138C129.716 45.611 130.273 45.2525 130.72 44.8381L132.13 47.2524C131.54 48.2086 130.672 49.0134 129.524 49.6667C128.393 50.3042 127.301 50.7344 126.25 50.9575C125.198 51.1807 124.194 51.2922 123.238 51.2922Z" fill="#1B1B26"/>
<path d="M161.477 49.9297C160.106 51.0452 157.389 51.603 153.325 51.603C150.138 51.603 147.628 50.7344 145.796 48.9974C143.963 47.2445 143.047 45.0612 143.047 42.4477C143.047 40.8382 143.612 39.4359 144.744 38.2407C145.875 37.0455 147.182 36.1451 148.664 35.5395C148.569 35.3323 148.369 34.9897 148.067 34.5116C147.78 34.0336 147.509 33.5874 147.254 33.173C146.999 32.7587 146.768 32.2248 146.561 31.5715C146.353 30.9181 146.25 30.2647 146.25 29.6113C146.25 27.1731 146.999 25.3325 148.497 24.0895C150.011 22.8465 152.537 22.225 156.074 22.225C157.636 22.225 159.007 22.4322 160.186 22.8465C161.365 23.2609 162.273 23.8186 162.911 24.5198C163.548 25.205 164.018 25.9381 164.321 26.719C164.624 27.4839 164.775 28.2966 164.775 29.1572C164.775 30.942 164.289 32.5356 163.317 33.938C162.361 35.3244 160.871 36.6471 158.847 37.906C159.086 38.3363 159.517 38.9418 160.138 39.7227C160.775 40.4876 161.357 41.0852 161.883 41.5155C162.026 41.149 162.138 40.7824 162.218 40.4159C162.313 40.0335 162.385 39.6032 162.433 39.1251C162.497 38.647 162.473 38.2407 162.361 37.906L168.743 38.0972C168.743 39.3402 168.608 40.4558 168.337 41.4438C168.066 42.4159 167.795 43.125 167.524 43.5712C167.253 44.0015 166.871 44.5433 166.377 45.1967C167.508 46.1369 168.632 46.7266 169.747 46.9656L167.907 51.1488C167.477 51.1966 167.134 51.2205 166.879 51.2205C164.536 51.2205 162.736 50.7902 161.477 49.9297ZM150.146 42.5912C150.146 44.0413 150.6 45.2286 151.509 46.1529C152.417 47.0771 153.477 47.5393 154.688 47.5393C154.879 47.5393 155.054 47.5313 155.214 47.5154C155.373 47.4835 155.54 47.4357 155.716 47.372C155.891 47.2923 156.042 47.2285 156.17 47.1807C156.297 47.117 156.489 47.0214 156.744 46.8939C156.999 46.7664 157.206 46.6628 157.365 46.5831C154.784 44.7824 152.712 42.5434 151.15 39.8661C150.768 40.0892 150.505 40.392 150.361 40.7745C150.218 41.1569 150.146 41.7625 150.146 42.5912ZM155.955 25.5716C154.792 25.5716 154.21 26.8783 154.21 29.4918C154.21 31.1173 154.799 32.6073 155.979 33.9619C156.6 33.4519 157.062 32.9101 157.365 32.3364C157.668 31.7627 157.843 31.2687 157.891 30.8543C157.955 30.4241 157.987 29.8265 157.987 29.0615C157.987 26.7349 157.309 25.5716 155.955 25.5716Z" fill="#1B1B26"/>
<path d="M187.105 50.7902H179.91L182.133 22.7748H193.344L195.448 32.1691L196.404 36.9259L197.312 32.193L199.177 22.7748H209.169L211.224 50.7902H203.79L202.571 34.3204L202.284 28.2488L198.627 47.9935H192.388L187.99 28.2488L187.846 34.3204L187.105 50.7902Z" fill="#1B1B26"/>
<path d="M224.314 38.4319C224.314 36.408 224.21 34.9738 224.003 34.1292C223.796 33.2846 223.414 32.8623 222.856 32.8623C222.378 32.8623 221.987 32.9499 221.684 33.1252C221.382 33.2846 221.159 33.5475 221.015 33.914C220.872 34.2646 220.776 34.6312 220.728 35.0136C220.696 35.3802 220.681 35.8503 220.681 36.424V38.4319H224.314ZM222.402 51.2922C220.617 51.2922 219.063 51.0213 217.74 50.4795C216.434 49.9376 215.398 49.1807 214.633 48.2086C213.884 47.2365 213.334 46.1449 212.983 44.9338C212.633 43.7067 212.458 42.3442 212.458 40.8462C212.458 37.2765 213.366 34.5754 215.183 32.7428C216.999 30.9101 219.541 29.9938 222.808 29.9938C225.947 29.9938 228.194 30.7348 229.549 32.2169C230.903 33.683 231.581 36.0495 231.581 39.3163V41.9697H220.657V42.4238C220.657 43.3641 220.752 44.137 220.943 44.7425C221.151 45.3481 221.445 45.7943 221.828 46.0811C222.21 46.368 222.601 46.5592 222.999 46.6548C223.398 46.7505 223.884 46.7983 224.457 46.7983C225.015 46.7983 225.613 46.7266 226.25 46.5831C226.904 46.4397 227.557 46.2166 228.21 45.9138C228.88 45.611 229.437 45.2525 229.884 44.8381L231.294 47.2524C230.704 48.2086 229.836 49.0134 228.688 49.6667C227.557 50.3042 226.465 50.7344 225.413 50.9575C224.362 51.1807 223.358 51.2922 222.402 51.2922Z" fill="#1B1B26"/>
<path d="M244.903 38.4319C244.903 36.408 244.799 34.9738 244.592 34.1292C244.385 33.2846 244.003 32.8623 243.445 32.8623C242.967 32.8623 242.576 32.9499 242.274 33.1252C241.971 33.2846 241.748 33.5475 241.604 33.914C241.461 34.2646 241.365 34.6312 241.317 35.0136C241.286 35.3802 241.27 35.8503 241.27 36.424V38.4319H244.903ZM242.991 51.2922C241.206 51.2922 239.652 51.0213 238.329 50.4795C237.023 49.9376 235.987 49.1807 235.222 48.2086C234.473 47.2365 233.923 46.1449 233.573 44.9338C233.222 43.7067 233.047 42.3442 233.047 40.8462C233.047 37.2765 233.955 34.5754 235.772 32.7428C237.588 30.9101 240.13 29.9938 243.397 29.9938C246.536 29.9938 248.783 30.7348 250.138 32.2169C251.493 33.683 252.17 36.0495 252.17 39.3163V41.9697H241.246V42.4238C241.246 43.3641 241.341 44.137 241.533 44.7425C241.74 45.3481 242.035 45.7943 242.417 46.0811C242.799 46.368 243.19 46.5592 243.588 46.6548C243.987 46.7505 244.473 46.7983 245.046 46.7983C245.604 46.7983 246.202 46.7266 246.839 46.5831C247.493 46.4397 248.146 46.2166 248.799 45.9138C249.469 45.611 250.026 45.2525 250.473 44.8381L251.883 47.2524C251.293 48.2086 250.425 49.0134 249.277 49.6667C248.146 50.3042 247.054 50.7344 246.003 50.9575C244.951 51.1807 243.947 51.2922 242.991 51.2922Z" fill="#1B1B26"/>
<path d="M266.998 50.7902C266.074 50.7902 265.229 50.6946 264.464 50.5034C263.699 50.3121 263.03 50.0731 262.456 49.7863V58.0092H254.759V35.3244L253.325 34.4399V31.8822L258.464 30.4719H262.456V32.0734C263.03 31.4838 263.723 30.9898 264.536 30.5914C265.349 30.193 266.297 29.9938 267.381 29.9938C270.01 29.9938 271.938 30.8942 273.165 32.6949C274.408 34.4957 275.03 36.9897 275.03 40.1769C275.03 41.6749 274.862 43.0613 274.528 44.3362C274.193 45.5951 273.699 46.7106 273.046 47.6827C272.392 48.6548 271.548 49.4197 270.512 49.9775C269.492 50.5193 268.321 50.7902 266.998 50.7902ZM263.484 47.4676C265.62 47.4676 266.687 45.8341 266.687 42.5673V38.5036C266.687 37.0694 266.44 36.0017 265.946 35.3005C265.468 34.5993 264.847 34.2487 264.082 34.2487C263.556 34.2487 263.014 34.4081 262.456 34.7268V47.3481C262.648 47.3959 262.823 47.4277 262.982 47.4437C263.158 47.4596 263.325 47.4676 263.484 47.4676Z" fill="#1B1B26"/>
<path d="M277.537 50.7902V23.7549L276.102 22.8943V20.6713L283.775 19.4761H285.329V50.7902H277.537Z" fill="#1B1B26"/>
<path d="M299.247 38.4319C299.247 36.408 299.144 34.9738 298.936 34.1292C298.729 33.2846 298.347 32.8623 297.789 32.8623C297.311 32.8623 296.92 32.9499 296.618 33.1252C296.315 33.2846 296.092 33.5475 295.948 33.914C295.805 34.2646 295.709 34.6312 295.662 35.0136C295.63 35.3802 295.614 35.8503 295.614 36.424V38.4319H299.247ZM297.335 51.2922C295.55 51.2922 293.996 51.0213 292.674 50.4795C291.367 49.9376 290.331 49.1807 289.566 48.2086C288.817 47.2365 288.267 46.1449 287.917 44.9338C287.566 43.7067 287.391 42.3442 287.391 40.8462C287.391 37.2765 288.299 34.5754 290.116 32.7428C291.933 30.9101 294.474 29.9938 297.741 29.9938C300.881 29.9938 303.128 30.7348 304.482 32.2169C305.837 33.683 306.514 36.0495 306.514 39.3163V41.9697H295.59V42.4238C295.59 43.3641 295.685 44.137 295.877 44.7425C296.084 45.3481 296.379 45.7943 296.761 46.0811C297.144 46.368 297.534 46.5592 297.932 46.6548C298.331 46.7505 298.817 46.7983 299.391 46.7983C299.948 46.7983 300.546 46.7266 301.183 46.5831C301.837 46.4397 302.49 46.2166 303.143 45.9138C303.813 45.611 304.371 45.2525 304.817 44.8381L306.227 47.2524C305.637 48.2086 304.769 49.0134 303.622 49.6667C302.49 50.3042 301.398 50.7344 300.347 50.9575C299.295 51.1807 298.291 51.2922 297.335 51.2922Z" fill="#1B1B26"/>
<path d="M86.3494 67.1264C86.7259 66.4676 87.2772 65.9298 88.0033 65.5129C88.7293 65.0961 89.5563 64.8877 90.484 64.8877C91.479 64.8877 92.3732 65.123 93.1665 65.5936C93.9598 66.0642 94.5851 66.7298 95.0422 67.5903C95.4994 68.4374 95.728 69.4257 95.728 70.5552C95.728 71.6712 95.4994 72.6662 95.0422 73.5402C94.5851 74.4142 93.9531 75.0932 93.1463 75.5772C92.353 76.0613 91.4656 76.3033 90.484 76.3033C89.5294 76.3033 88.689 76.0949 87.9629 75.6781C87.2503 75.2613 86.7125 74.7301 86.3494 74.0847V76.1218H84.514V61.1968H86.3494V67.1264ZM93.8523 70.5552C93.8523 69.7215 93.6842 68.9954 93.348 68.3769C93.0119 67.7584 92.5547 67.2878 91.9765 66.9651C91.4118 66.6424 90.7866 66.481 90.1008 66.481C89.4285 66.481 88.8033 66.6491 88.2251 66.9853C87.6604 67.308 87.2032 67.7853 86.8536 68.4173C86.5175 69.0358 86.3494 69.7551 86.3494 70.5753C86.3494 71.409 86.5175 72.1418 86.8536 72.7737C87.2032 73.3923 87.6604 73.8696 88.2251 74.2057C88.8033 74.5284 89.4285 74.6898 90.1008 74.6898C90.7866 74.6898 91.4118 74.5284 91.9765 74.2057C92.5547 73.8696 93.0119 73.3923 93.348 72.7737C93.6842 72.1418 93.8523 71.4023 93.8523 70.5552Z" fill="#1B1B26"/>
<path d="M102.964 76.3033C101.929 76.3033 100.988 76.068 100.141 75.5974C99.3069 75.1268 98.6481 74.4612 98.164 73.6007C97.6934 72.7267 97.4581 71.7182 97.4581 70.5753C97.4581 69.4459 97.7001 68.4509 98.1842 67.5903C98.6817 66.7163 99.354 66.0508 100.201 65.5936C101.048 65.123 101.996 64.8877 103.045 64.8877C104.094 64.8877 105.042 65.123 105.889 65.5936C106.736 66.0508 107.401 66.7096 107.885 67.5702C108.383 68.4307 108.632 69.4324 108.632 70.5753C108.632 71.7182 108.376 72.7267 107.865 73.6007C107.368 74.4612 106.689 75.1268 105.828 75.5974C104.968 76.068 104.013 76.3033 102.964 76.3033ZM102.964 74.6898C103.623 74.6898 104.242 74.5352 104.82 74.2259C105.398 73.9167 105.862 73.4528 106.211 72.8343C106.574 72.2157 106.756 71.4628 106.756 70.5753C106.756 69.6879 106.581 68.9349 106.232 68.3164C105.882 67.6979 105.425 67.2407 104.86 66.9449C104.295 66.6357 103.684 66.481 103.025 66.481C102.352 66.481 101.734 66.6357 101.169 66.9449C100.618 67.2407 100.174 67.6979 99.838 68.3164C99.5019 68.9349 99.3338 69.6879 99.3338 70.5753C99.3338 71.4762 99.4951 72.2359 99.8179 72.8544C100.154 73.4729 100.598 73.9368 101.149 74.2461C101.7 74.5419 102.305 74.6898 102.964 74.6898Z" fill="#1B1B26"/>
<path d="M110.359 70.5552C110.359 69.4257 110.588 68.4374 111.045 67.5903C111.502 66.7298 112.127 66.0642 112.921 65.5936C113.727 65.123 114.621 64.8877 115.603 64.8877C116.571 64.8877 117.412 65.0961 118.124 65.5129C118.837 65.9298 119.368 66.4541 119.718 67.0861V65.0692H121.573V76.1218H119.718V74.0646C119.354 74.71 118.81 75.2478 118.084 75.6781C117.371 76.0949 116.538 76.3033 115.583 76.3033C114.601 76.3033 113.714 76.0613 112.921 75.5772C112.127 75.0932 111.502 74.4142 111.045 73.5402C110.588 72.6662 110.359 71.6712 110.359 70.5552ZM119.718 70.5753C119.718 69.7417 119.549 69.0156 119.213 68.3971C118.877 67.7786 118.42 67.308 117.842 66.9853C117.277 66.6491 116.652 66.481 115.966 66.481C115.28 66.481 114.655 66.6424 114.09 66.9651C113.526 67.2878 113.075 67.7584 112.739 68.3769C112.403 68.9954 112.235 69.7215 112.235 70.5552C112.235 71.4023 112.403 72.1418 112.739 72.7737C113.075 73.3923 113.526 73.8696 114.09 74.2057C114.655 74.5284 115.28 74.6898 115.966 74.6898C116.652 74.6898 117.277 74.5284 117.842 74.2057C118.42 73.8696 118.877 73.3923 119.213 72.7737C119.549 72.1418 119.718 71.409 119.718 70.5753Z" fill="#1B1B26"/>
<path d="M126.51 66.8642C126.833 66.2323 127.29 65.7415 127.882 65.3919C128.487 65.0423 129.219 64.8675 130.08 64.8675V66.7634H129.596C127.539 66.7634 126.51 67.8794 126.51 70.1114V76.1218H124.675V65.0692H126.51V66.8642Z" fill="#1B1B26"/>
<path d="M131.513 70.5552C131.513 69.4257 131.741 68.4374 132.199 67.5903C132.656 66.7298 133.281 66.0642 134.074 65.5936C134.881 65.123 135.782 64.8877 136.777 64.8877C137.638 64.8877 138.438 65.0894 139.177 65.4928C139.917 65.8827 140.481 66.4004 140.871 67.0458V61.1968H142.727V76.1218H140.871V74.0444C140.508 74.7032 139.97 75.2478 139.258 75.6781C138.545 76.0949 137.711 76.3033 136.757 76.3033C135.775 76.3033 134.881 76.0613 134.074 75.5772C133.281 75.0932 132.656 74.4142 132.199 73.5402C131.741 72.6662 131.513 71.6712 131.513 70.5552ZM140.871 70.5753C140.871 69.7417 140.703 69.0156 140.367 68.3971C140.031 67.7786 139.574 67.308 138.996 66.9853C138.431 66.6491 137.806 66.481 137.12 66.481C136.434 66.481 135.809 66.6424 135.244 66.9651C134.679 67.2878 134.229 67.7584 133.893 68.3769C133.557 68.9954 133.389 69.7215 133.389 70.5552C133.389 71.4023 133.557 72.1418 133.893 72.7737C134.229 73.3923 134.679 73.8696 135.244 74.2057C135.809 74.5284 136.434 74.6898 137.12 74.6898C137.806 74.6898 138.431 74.5284 138.996 74.2057C139.574 73.8696 140.031 73.3923 140.367 72.7737C140.703 72.1418 140.871 71.409 140.871 70.5753Z" fill="#1B1B26"/>
<path d="M155.764 64.8877C156.718 64.8877 157.552 65.0961 158.265 65.5129C158.991 65.9298 159.529 66.4541 159.878 67.0861V65.0692H161.734V76.3638C161.734 77.3723 161.519 78.2664 161.088 79.0463C160.658 79.8396 160.039 80.4581 159.233 80.9018C158.439 81.3455 157.512 81.5674 156.449 81.5674C154.997 81.5674 153.787 81.2245 152.819 80.5388C151.851 79.853 151.279 78.9186 151.105 77.7353H152.92C153.122 78.4076 153.538 78.9454 154.17 79.3488C154.802 79.7656 155.562 79.9741 156.449 79.9741C157.458 79.9741 158.278 79.6581 158.91 79.0261C159.555 78.3942 159.878 77.5067 159.878 76.3638V74.0444C159.515 74.6898 158.977 75.2276 158.265 75.6579C157.552 76.0882 156.718 76.3033 155.764 76.3033C154.782 76.3033 153.888 76.0613 153.081 75.5772C152.288 75.0932 151.663 74.4142 151.205 73.5402C150.748 72.6662 150.52 71.6712 150.52 70.5552C150.52 69.4257 150.748 68.4374 151.205 67.5903C151.663 66.7298 152.288 66.0642 153.081 65.5936C153.888 65.123 154.782 64.8877 155.764 64.8877ZM159.878 70.5753C159.878 69.7417 159.71 69.0156 159.374 68.3971C159.038 67.7786 158.581 67.308 158.002 66.9853C157.438 66.6491 156.812 66.481 156.127 66.481C155.441 66.481 154.816 66.6424 154.251 66.9651C153.686 67.2878 153.236 67.7584 152.9 68.3769C152.564 68.9954 152.395 69.7215 152.395 70.5552C152.395 71.4023 152.564 72.1418 152.9 72.7737C153.236 73.3923 153.686 73.8696 154.251 74.2057C154.816 74.5284 155.441 74.6898 156.127 74.6898C156.812 74.6898 157.438 74.5284 158.002 74.2057C158.581 73.8696 159.038 73.3923 159.374 72.7737C159.71 72.1418 159.878 71.409 159.878 70.5753Z" fill="#1B1B26"/>
<path d="M164.15 70.5552C164.15 69.4257 164.378 68.4374 164.835 67.5903C165.292 66.7298 165.918 66.0642 166.711 65.5936C167.518 65.123 168.412 64.8877 169.393 64.8877C170.362 64.8877 171.202 65.0961 171.915 65.5129C172.627 65.9298 173.158 66.4541 173.508 67.0861V65.0692H175.363V76.1218H173.508V74.0646C173.145 74.71 172.6 75.2478 171.874 75.6781C171.162 76.0949 170.328 76.3033 169.373 76.3033C168.392 76.3033 167.504 76.0613 166.711 75.5772C165.918 75.0932 165.292 74.4142 164.835 73.5402C164.378 72.6662 164.15 71.6712 164.15 70.5552ZM173.508 70.5753C173.508 69.7417 173.34 69.0156 173.004 68.3971C172.668 67.7786 172.21 67.308 171.632 66.9853C171.067 66.6491 170.442 66.481 169.756 66.481C169.071 66.481 168.446 66.6424 167.881 66.9651C167.316 67.2878 166.866 67.7584 166.529 68.3769C166.193 68.9954 166.025 69.7215 166.025 70.5552C166.025 71.4023 166.193 72.1418 166.529 72.7737C166.866 73.3923 167.316 73.8696 167.881 74.2057C168.446 74.5284 169.071 74.6898 169.756 74.6898C170.442 74.6898 171.067 74.5284 171.632 74.2057C172.21 73.8696 172.668 73.3923 173.004 72.7737C173.34 72.1418 173.508 71.409 173.508 70.5753Z" fill="#1B1B26"/>
<path d="M191.756 64.8675C192.617 64.8675 193.383 65.049 194.056 65.4121C194.728 65.7617 195.259 66.2928 195.649 67.0054C196.039 67.7181 196.234 68.5853 196.234 69.6072V76.1218H194.419V69.8694C194.419 68.7669 194.143 67.9265 193.592 67.3483C193.054 66.7567 192.321 66.4609 191.393 66.4609C190.439 66.4609 189.679 66.7701 189.114 67.3886C188.55 67.9937 188.267 68.8744 188.267 70.0308V76.1218H186.452V69.8694C186.452 68.7669 186.176 67.9265 185.625 67.3483C185.087 66.7567 184.354 66.4609 183.427 66.4609C182.472 66.4609 181.712 66.7701 181.148 67.3886C180.583 67.9937 180.3 68.8744 180.3 70.0308V76.1218H178.465V65.0692H180.3V66.6626C180.663 66.0844 181.148 65.6407 181.753 65.3314C182.371 65.0222 183.05 64.8675 183.79 64.8675C184.717 64.8675 185.538 65.0759 186.25 65.4928C186.963 65.9096 187.494 66.5214 187.844 67.3281C188.153 66.5483 188.664 65.9432 189.376 65.5129C190.089 65.0827 190.882 64.8675 191.756 64.8675Z" fill="#1B1B26"/>
<path d="M209.329 70.172C209.329 70.5216 209.309 70.8913 209.269 71.2812H200.435C200.502 72.3704 200.872 73.2242 201.544 73.8427C202.23 74.4478 203.057 74.7503 204.025 74.7503C204.818 74.7503 205.477 74.5688 206.001 74.2057C206.539 73.8293 206.915 73.3318 207.131 72.7132H209.107C208.811 73.7755 208.22 74.6427 207.332 75.315C206.445 75.9739 205.342 76.3033 204.025 76.3033C202.976 76.3033 202.035 76.068 201.201 75.5974C200.381 75.1268 199.735 74.4612 199.265 73.6007C198.794 72.7267 198.559 71.7182 198.559 70.5753C198.559 69.4324 198.787 68.4307 199.245 67.5702C199.702 66.7096 200.34 66.0508 201.161 65.5936C201.994 65.123 202.949 64.8877 204.025 64.8877C205.073 64.8877 206.001 65.1163 206.808 65.5734C207.615 66.0306 208.233 66.6626 208.663 67.4693C209.107 68.2626 209.329 69.1635 209.329 70.172ZM207.433 69.7887C207.433 69.0896 207.279 68.4912 206.969 67.9937C206.66 67.4828 206.236 67.0996 205.699 66.8441C205.174 66.5752 204.589 66.4407 203.944 66.4407C203.016 66.4407 202.223 66.7365 201.564 67.3281C200.919 67.9198 200.549 68.74 200.455 69.7887H207.433Z" fill="#1B1B26"/>
<path d="M221.042 76.3033C220.194 76.3033 219.435 76.1621 218.762 75.8798C218.09 75.584 217.559 75.1806 217.169 74.6696C216.779 74.1452 216.564 73.5469 216.524 72.8746H218.42C218.473 73.4259 218.729 73.8763 219.186 74.2259C219.657 74.5755 220.268 74.7503 221.021 74.7503C221.721 74.7503 222.272 74.5957 222.675 74.2864C223.079 73.9772 223.28 73.5872 223.28 73.1166C223.28 72.6326 223.065 72.2762 222.635 72.0477C222.205 71.8056 221.539 71.5703 220.638 71.3418C219.818 71.1266 219.146 70.9115 218.621 70.6963C218.11 70.4678 217.667 70.1383 217.29 69.7081C216.927 69.2644 216.746 68.6862 216.746 67.9735C216.746 67.4088 216.914 66.8911 217.25 66.4205C217.586 65.9499 218.063 65.5802 218.682 65.3112C219.3 65.0289 220.006 64.8877 220.799 64.8877C222.023 64.8877 223.011 65.1969 223.764 65.8155C224.517 66.434 224.921 67.2811 224.974 68.3568H223.139C223.099 67.7786 222.863 67.3147 222.433 66.9651C222.016 66.6155 221.452 66.4407 220.739 66.4407C220.08 66.4407 219.556 66.5819 219.166 66.8642C218.776 67.1466 218.581 67.5164 218.581 67.9735C218.581 68.3366 218.695 68.6391 218.924 68.8811C219.166 69.1097 219.462 69.298 219.811 69.4459C220.174 69.5803 220.672 69.735 221.304 69.9098C222.097 70.1249 222.742 70.34 223.24 70.5552C223.737 70.7569 224.161 71.0661 224.511 71.4829C224.874 71.8998 225.062 72.4443 225.075 73.1166C225.075 73.7217 224.907 74.2663 224.571 74.7503C224.235 75.2344 223.758 75.6176 223.139 75.8999C222.534 76.1689 221.835 76.3033 221.042 76.3033Z" fill="#1B1B26"/>
<path d="M233.152 64.8675C233.986 64.8675 234.739 65.049 235.411 65.4121C236.083 65.7617 236.608 66.2928 236.984 67.0054C237.374 67.7181 237.569 68.5853 237.569 69.6072V76.1218H235.754V69.8694C235.754 68.7669 235.478 67.9265 234.927 67.3483C234.376 66.7567 233.623 66.4609 232.668 66.4609C231.7 66.4609 230.927 66.7634 230.349 67.3685C229.784 67.9735 229.502 68.8543 229.502 70.0106V76.1218H227.666V61.1968H229.502V66.6424C229.865 66.0777 230.362 65.6407 230.994 65.3314C231.64 65.0222 232.359 64.8675 233.152 64.8675Z" fill="#1B1B26"/>
<path d="M245.388 76.3033C244.352 76.3033 243.411 76.068 242.564 75.5974C241.73 75.1268 241.071 74.4612 240.587 73.6007C240.117 72.7267 239.882 71.7182 239.882 70.5753C239.882 69.4459 240.124 68.4509 240.608 67.5903C241.105 66.7163 241.777 66.0508 242.624 65.5936C243.472 65.123 244.42 64.8877 245.468 64.8877C246.517 64.8877 247.465 65.123 248.312 65.5936C249.159 66.0508 249.825 66.7096 250.309 67.5702C250.806 68.4307 251.055 69.4324 251.055 70.5753C251.055 71.7182 250.8 72.7267 250.289 73.6007C249.791 74.4612 249.112 75.1268 248.252 75.5974C247.391 76.068 246.436 76.3033 245.388 76.3033ZM245.388 74.6898C246.046 74.6898 246.665 74.5352 247.243 74.2259C247.821 73.9167 248.285 73.4528 248.635 72.8343C248.998 72.2157 249.179 71.4628 249.179 70.5753C249.179 69.6879 249.005 68.9349 248.655 68.3164C248.305 67.6979 247.848 67.2407 247.284 66.9449C246.719 66.6357 246.107 66.481 245.448 66.481C244.776 66.481 244.157 66.6357 243.593 66.9449C243.041 67.2407 242.598 67.6979 242.261 68.3164C241.925 68.9349 241.757 69.6879 241.757 70.5753C241.757 71.4762 241.919 72.2359 242.241 72.8544C242.577 73.4729 243.021 73.9368 243.572 74.2461C244.124 74.5419 244.729 74.6898 245.388 74.6898Z" fill="#1B1B26"/>
<path d="M255.304 67.1063C255.667 66.4743 256.205 65.9499 256.917 65.5331C257.643 65.1028 258.484 64.8877 259.438 64.8877C260.42 64.8877 261.307 65.123 262.101 65.5936C262.907 66.0642 263.539 66.7298 263.996 67.5903C264.454 68.4374 264.682 69.4257 264.682 70.5552C264.682 71.6712 264.454 72.6662 263.996 73.5402C263.539 74.4142 262.907 75.0932 262.101 75.5772C261.307 76.0613 260.42 76.3033 259.438 76.3033C258.497 76.3033 257.663 76.0949 256.937 75.6781C256.225 75.2478 255.68 74.7167 255.304 74.0847V81.3657H253.468V65.0692H255.304V67.1063ZM262.807 70.5552C262.807 69.7215 262.638 68.9954 262.302 68.3769C261.966 67.7584 261.509 67.2878 260.931 66.9651C260.366 66.6424 259.741 66.481 259.055 66.481C258.383 66.481 257.758 66.6491 257.179 66.9853C256.615 67.308 256.157 67.7853 255.808 68.4173C255.472 69.0358 255.304 69.7551 255.304 70.5753C255.304 71.409 255.472 72.1418 255.808 72.7737C256.157 73.3923 256.615 73.8696 257.179 74.2057C257.758 74.5284 258.383 74.6898 259.055 74.6898C259.741 74.6898 260.366 74.5284 260.931 74.2057C261.509 73.8696 261.966 73.3923 262.302 72.7737C262.638 72.1418 262.807 71.4023 262.807 70.5552Z" fill="#1B1B26"/>
<defs>
<clipPath id="clip0_155_307">
<rect width="57.3558" height="59.1622" fill="white" transform="translate(285.644 6.2312)"/>
</clipPath>
</defs>
</svg>
