<svg width="173" height="65" viewBox="0 0 173 65" fill="none" xmlns="http://www.w3.org/2000/svg">
<g clip-path="url(#clip0_288_986)">
<path d="M89.6766 21.2648L97.8718 20.7348C98.0588 22.0753 98.4016 23.0729 98.9625 23.7899C99.8661 24.9121 101.113 25.4733 102.764 25.4733C103.979 25.4733 104.945 25.1927 105.6 24.6004C106.223 24.1328 106.597 23.3846 106.597 22.6053C106.597 21.8571 106.254 21.1401 105.662 20.6725C105.039 20.1114 103.574 19.5502 101.268 19.0514C97.4979 18.2098 94.787 17.0875 93.1978 15.6535C91.6086 14.313 90.7049 12.3491 90.7672 10.2604C90.7672 8.82641 91.2035 7.39241 92.0137 6.2078C92.9485 4.86733 94.2261 3.80741 95.7529 3.21511C97.4044 2.49811 99.7103 2.12402 102.608 2.12402C106.161 2.12402 108.872 2.77868 110.741 4.11915C112.611 5.42846 113.733 7.54828 114.075 10.4475L105.974 10.9151C105.755 9.6681 105.319 8.76406 104.603 8.17176C103.886 7.57945 102.951 7.29889 101.736 7.29889C100.739 7.29889 99.9908 7.51711 99.4922 7.92237C99.0248 8.29645 98.7132 8.85758 98.7443 9.48106C98.7443 9.94867 98.9936 10.3851 99.3675 10.6657C99.7726 11.0398 100.739 11.3827 102.265 11.6944C106.036 12.5049 108.716 13.3155 110.367 14.1571C112.019 14.9988 113.203 16.0276 113.92 17.2434C114.667 18.4903 115.041 19.9243 115.01 21.3895C115.01 23.1352 114.512 24.881 113.514 26.3461C112.486 27.8737 111.053 29.0583 109.37 29.7753C107.594 30.5546 105.35 30.9599 102.671 30.9599C97.9342 30.9599 94.6623 30.0558 92.8238 28.2166C90.9854 26.3773 89.8947 24.0704 89.6766 21.2648ZM2.70762 30.4923V2.62281H17.0726C19.7213 2.62281 21.7779 2.84102 23.1801 3.30863C24.5511 3.74507 25.7664 4.64911 26.5766 5.86489C27.4802 7.20537 27.9165 8.76406 27.8853 10.3851C27.9788 13.1284 26.5766 15.747 24.1772 17.1187C23.2424 17.6486 22.2141 18.0227 21.1546 18.2098C21.9337 18.428 22.7127 18.8021 23.3982 19.2385C23.9279 19.6749 24.3642 20.1737 24.7693 20.7037C25.2367 21.2336 25.6418 21.8259 25.9845 22.4494L30.16 30.5234H20.3756L15.7639 21.9506C15.1718 20.8595 14.6733 20.1425 14.2059 19.7996C13.5826 19.3632 12.8348 19.145 12.0869 19.145H11.3391V30.4611H2.70762V30.4923ZM11.3391 13.9078H14.9849C15.7639 13.8454 16.5117 13.7207 17.2596 13.5337C17.8205 13.4401 18.319 13.1284 18.6618 12.6608C19.5031 11.5385 19.3785 9.94867 18.3502 8.98228C17.7893 8.51467 16.6987 8.26528 15.1407 8.26528H11.3391V13.9078ZM0.744507 54.3715L8.93972 53.8415C9.12669 55.182 9.46945 56.1796 10.0303 56.8965C10.9028 58.0188 12.1804 58.6111 13.8319 58.6111C15.0472 58.6111 16.0132 58.3305 16.6675 57.7382C17.2907 57.2395 17.6647 56.5225 17.6647 55.7431C17.6647 54.9949 17.3219 54.2779 16.7299 53.8103C16.1066 53.2492 14.6421 52.6881 12.3051 52.1893C8.53464 51.3476 5.82367 50.2253 4.23448 48.7913C2.6453 47.4509 1.74164 45.4869 1.80396 43.3983C1.80396 41.9643 2.24021 40.5303 3.05039 39.3456C3.9852 38.0052 5.26278 36.9453 6.78965 36.353C8.44115 35.636 10.747 35.2619 13.645 35.2619C17.1973 35.2619 19.9082 35.9165 21.7779 37.257C23.6475 38.5975 24.7381 40.6861 25.0809 43.5853L16.9791 44.0529C16.761 42.806 16.3248 41.9019 15.6081 41.3096C14.9225 40.7173 13.9566 40.4367 12.7413 40.4679C11.7442 40.4679 10.9963 40.6861 10.4977 41.1226C9.99918 41.4966 9.71874 42.0578 9.7499 42.6813C9.7499 43.1489 9.99918 43.5853 10.3731 43.8659C10.7782 44.2399 11.7442 44.5829 13.271 44.8946C17.0415 45.7051 19.7213 46.5156 21.3728 47.3573C23.0243 48.199 24.2084 49.2278 24.9251 50.4436C25.6729 51.6905 26.0468 53.1245 26.0468 54.5585C26.0468 56.3042 25.5171 58.0188 24.5511 59.484C23.5228 61.0115 22.0895 62.1961 20.4068 62.9131C18.6306 63.6925 16.3871 64.0977 13.7073 64.0977C8.97088 64.0977 5.69903 63.1937 3.86056 61.3544C2.02209 59.484 0.993791 57.1771 0.744507 54.3715Z" fill="#F5A73F"/>
<path d="M42.188 52.1894L49.7288 54.4651C49.3238 56.3667 48.4824 58.1748 47.3295 59.7646C46.27 61.1675 44.8678 62.2586 43.2786 62.9756C41.6583 63.6926 39.6017 64.0666 37.1088 64.0666C34.0863 64.0666 31.5934 63.6302 29.6926 62.7573C27.7607 61.8845 26.1092 60.3258 24.707 58.1124C23.3047 55.8991 22.6192 53.0623 22.6192 49.602C22.6192 44.9882 23.8345 41.4344 26.2961 38.9717C28.7578 36.5089 32.2166 35.262 36.7038 35.262C40.2249 35.262 42.967 35.979 44.9925 37.3818C46.9867 38.8158 48.4824 40.998 49.4796 43.9283L41.8764 45.6117C41.6894 44.957 41.409 44.3024 41.0351 43.7413C40.5677 43.0866 39.9756 42.5878 39.2589 42.2137C38.5422 41.8397 37.7321 41.6838 36.9219 41.6838C34.9588 41.6838 33.4631 42.4631 32.4348 44.053C31.6558 45.2064 31.2507 47.0457 31.2507 49.5396C31.2507 52.6258 31.7181 54.7456 32.6529 55.8991C33.5877 57.0525 34.8964 57.6136 36.6103 57.6136C38.2618 57.6136 39.5082 57.146 40.3495 56.242C41.1909 55.2756 41.8141 53.9351 42.188 52.1894ZM59.7937 35.7296H68.394V45.487H77.8045V35.7296H86.4671V63.599H77.8045V52.3141H68.394V63.599H59.7937V35.7296Z" fill="#F5A73F"/>
<path d="M85.283 49.6642C85.283 45.1128 86.5605 41.559 89.0845 39.0339C91.6085 36.5088 95.1608 35.2307 99.6791 35.2307C104.322 35.2307 107.874 36.4777 110.398 38.9716C112.922 41.4655 114.169 44.957 114.169 49.446C114.169 52.7193 113.608 55.369 112.517 57.4577C111.458 59.5152 109.806 61.1986 107.781 62.3208C105.693 63.4743 103.107 64.0666 100.022 64.0666C96.8747 64.0666 94.2884 63.5678 92.2318 62.5702C90.1128 61.5103 88.3679 59.8581 87.2149 57.8318C85.9373 55.6496 85.283 52.9375 85.283 49.6642ZM93.8833 49.6954C93.8833 52.501 94.413 54.5273 95.4413 55.7743C96.4696 56.9901 97.903 57.6136 99.7103 57.6136C101.549 57.6136 102.982 57.0213 104.01 55.8055C105.039 54.5897 105.537 52.4387 105.537 49.3213C105.537 46.7027 105.008 44.7699 103.948 43.5853C102.889 42.3695 101.455 41.7772 99.648 41.7772C98.0588 41.7149 96.5319 42.4007 95.4725 43.6165C94.413 44.8323 93.8833 46.8586 93.8833 49.6954ZM122.987 49.6642C122.987 45.1128 124.265 41.559 126.789 39.0339C129.313 36.5088 132.865 35.2307 137.383 35.2307C142.026 35.2307 145.61 36.4777 148.103 38.9716C150.595 41.4655 151.873 44.957 151.873 49.446C151.873 52.7193 151.312 55.369 150.221 57.4577C149.162 59.5152 147.511 61.1986 145.485 62.3208C143.397 63.4743 140.811 64.0666 137.726 64.0666C134.579 64.0666 131.993 63.5678 129.936 62.5702C127.817 61.5103 126.072 59.8581 124.919 57.8318C123.642 55.6496 122.987 52.9375 122.987 49.6642ZM131.587 49.6954C131.587 52.501 132.117 54.5273 133.146 55.7743C134.174 56.9901 135.607 57.6136 137.415 57.6136C139.253 57.6136 140.686 57.0213 141.715 55.8055C142.743 54.5897 143.242 52.4387 143.242 49.3213C143.242 46.7027 142.712 44.7699 141.652 43.5853C140.593 42.3695 139.159 41.7772 137.352 41.7772C135.763 41.7149 134.205 42.4007 133.177 43.6165C132.117 44.8323 131.587 46.8586 131.587 49.6954Z" fill="#F5A73F"/>
<path d="M150.969 35.7295H159.57V56.7407H173V63.599H150.938V35.7295H150.969Z" fill="#F5A73F"/>
<path d="M141.49 34.1213C150.149 27.5935 152.819 16.5278 147.454 9.40539C142.089 2.28299 130.72 1.80097 122.061 8.32879C113.403 14.8566 110.733 25.9223 116.098 33.0447C121.463 40.1671 132.831 40.6491 141.49 34.1213Z" fill="#1B1B26"/>
<mask id="mask0_288_986" style="mask-type:luminance" maskUnits="userSpaceOnUse" x="113" y="3" width="38" height="36">
<path d="M141.49 34.1213C150.149 27.5935 152.819 16.5278 147.454 9.40539C142.089 2.28299 130.72 1.80097 122.061 8.32879C113.403 14.8566 110.733 25.9223 116.098 33.0447C121.463 40.1671 132.831 40.6491 141.49 34.1213Z" fill="white"/>
</mask>
<g mask="url(#mask0_288_986)">
<path d="M94.0156 17.6926L138.76 -16.0403L169.722 25.0634L124.977 58.7963L94.0156 17.6926Z" fill="#1B1B26"/>
<mask id="mask1_288_986" style="mask-type:luminance" maskUnits="userSpaceOnUse" x="94" y="-17" width="76" height="76">
<path d="M94.0156 17.6926L138.76 -16.0403L169.722 25.0634L124.977 58.7963L94.0156 17.6926Z" fill="white"/>
</mask>
<g mask="url(#mask1_288_986)">
<path d="M141.49 34.1213C150.149 27.5935 152.819 16.5278 147.454 9.40539C142.089 2.28299 130.72 1.80097 122.061 8.32879C113.403 14.8566 110.733 25.9223 116.098 33.0447C121.463 40.1671 132.831 40.6491 141.49 34.1213Z" fill="#1B1B26"/>
<mask id="mask2_288_986" style="mask-type:luminance" maskUnits="userSpaceOnUse" x="113" y="3" width="38" height="36">
<path d="M141.49 34.1213C150.149 27.5935 152.819 16.5278 147.454 9.40539C142.089 2.28299 130.72 1.80097 122.061 8.32879C113.403 14.8566 110.733 25.9223 116.098 33.0447C121.463 40.1671 132.831 40.6491 141.49 34.1213Z" fill="white"/>
</mask>
<g mask="url(#mask2_288_986)">
<path d="M106.475 20.4373L137.807 -3.18274L157.253 22.635L125.922 46.255L106.475 20.4373Z" fill="#1B1B26"/>
<mask id="mask3_288_986" style="mask-type:luminance" maskUnits="userSpaceOnUse" x="106" y="-4" width="52" height="51">
<path d="M106.475 20.4373L137.807 -3.18274L157.253 22.635L125.922 46.255L106.475 20.4373Z" fill="white"/>
</mask>
<g mask="url(#mask3_288_986)">
<path d="M141.49 34.1213C150.149 27.5935 152.819 16.5278 147.454 9.40539C142.089 2.28299 130.72 1.80097 122.061 8.32879C113.403 14.8566 110.733 25.9223 116.098 33.0447C121.463 40.1671 132.831 40.6491 141.49 34.1213Z" fill="#1B1B26" stroke="#F5A73F" stroke-width="4" stroke-miterlimit="10"/>
</g>
<mask id="mask4_288_986" style="mask-type:luminance" maskUnits="userSpaceOnUse" x="110" y="-2" width="43" height="47">
<path d="M110.941 35.9441L121.756 -1.78505L152.816 7.12396L142.001 44.8531L110.941 35.9441Z" fill="white"/>
</mask>
<g mask="url(#mask4_288_986)">
<path d="M106.476 20.439L137.809 -3.18249L157.254 22.6338L125.921 46.2553L106.476 20.439Z" stroke="#F5A73F" stroke-width="4" stroke-miterlimit="10"/>
</g>
<path d="M141.49 34.1213C150.149 27.5935 152.819 16.5278 147.454 9.40539C142.089 2.28299 130.72 1.80097 122.061 8.32879C113.403 14.8566 110.733 25.9223 116.098 33.0447C121.463 40.1671 132.831 40.6491 141.49 34.1213Z" stroke="#F5A73F" stroke-width="4" stroke-miterlimit="10"/>
<path d="M106.475 20.4373L137.807 -3.18274L157.253 22.635L125.922 46.255L106.475 20.4373Z" fill="#1B1B26"/>
<mask id="mask5_288_986" style="mask-type:luminance" maskUnits="userSpaceOnUse" x="106" y="-4" width="52" height="51">
<path d="M106.475 20.4373L137.807 -3.18274L157.253 22.635L125.922 46.255L106.475 20.4373Z" fill="white"/>
</mask>
<g mask="url(#mask5_288_986)">
<path d="M141.49 34.1213C150.149 27.5935 152.819 16.5278 147.454 9.40539C142.089 2.28299 130.72 1.80097 122.061 8.32879C113.403 14.8566 110.733 25.9223 116.098 33.0447C121.463 40.1671 132.831 40.6491 141.49 34.1213Z" fill="#1B1B26" stroke="#F5A73F" stroke-width="4" stroke-miterlimit="10"/>
</g>
<mask id="mask6_288_986" style="mask-type:luminance" maskUnits="userSpaceOnUse" x="110" y="-2" width="43" height="47">
<path d="M110.941 35.9441L121.756 -1.78505L152.816 7.12396L142.001 44.8531L110.941 35.9441Z" fill="white"/>
</mask>
<g mask="url(#mask6_288_986)">
<path d="M106.476 20.439L137.809 -3.18249L157.254 22.6338L125.921 46.2553L106.476 20.439Z" stroke="#F5A73F" stroke-width="4" stroke-miterlimit="10"/>
</g>
<path d="M94.0156 17.6926L138.76 -16.0403L169.722 25.0634L124.977 58.7963L94.0156 17.6926Z" stroke="#F5A73F" stroke-width="4" stroke-miterlimit="10"/>
</g>
<path d="M141.49 34.1213C150.149 27.5935 152.819 16.5278 147.454 9.40539C142.089 2.28299 130.72 1.80097 122.061 8.32879C113.403 14.8566 110.733 25.9223 116.098 33.0447C121.463 40.1671 132.831 40.6491 141.49 34.1213Z" stroke="#F5A73F" stroke-width="4" stroke-miterlimit="10"/>
<path d="M123.018 19.1762L126.134 16.994L129.967 22.4494C130.621 23.3223 131.12 24.2575 131.494 25.2862C131.712 26.0656 131.65 26.9073 131.338 27.6555C130.933 28.5907 130.279 29.37 129.406 29.9312C128.378 30.6482 127.505 31.0534 126.758 31.1781C126.041 31.3028 125.293 31.1781 124.607 30.8664C123.86 30.4923 123.205 29.9623 122.707 29.2765L125.386 26.7826C125.605 27.1255 125.885 27.4372 126.197 27.6866C126.415 27.8425 126.664 27.936 126.944 27.936C127.163 27.936 127.381 27.8425 127.537 27.7178C127.848 27.5308 128.066 27.1567 128.035 26.7826C127.942 26.2526 127.724 25.7227 127.381 25.3174L123.018 19.1762ZM132.366 22.6365L135.202 20.3919C135.514 20.766 135.919 21.0466 136.355 21.2025C136.978 21.3895 137.633 21.2648 138.162 20.8596C138.536 20.6102 138.848 20.2673 138.972 19.8308C139.159 19.2697 138.848 18.6462 138.287 18.4592C138.193 18.428 138.1 18.3968 138.006 18.3968C137.633 18.3656 136.978 18.5215 136.012 18.9268C134.423 19.5814 133.177 19.8308 132.242 19.7373C131.338 19.6438 130.497 19.1762 129.998 18.3968C129.624 17.8669 129.437 17.2434 129.406 16.6199C129.406 15.9029 129.593 15.1859 129.998 14.5936C130.59 13.7519 131.307 13.0349 132.179 12.4738C133.488 11.5697 134.641 11.1333 135.638 11.1333C136.635 11.1333 137.57 11.6009 138.443 12.5673L135.638 14.7806C135.077 14.0636 134.018 13.9078 133.301 14.4689L133.208 14.5624C132.896 14.7495 132.678 15.03 132.553 15.3729C132.46 15.6223 132.522 15.9029 132.678 16.1211C132.803 16.277 132.99 16.4017 133.208 16.4017C133.457 16.4329 133.893 16.3082 134.516 16.0276C136.075 15.373 137.259 14.9989 138.069 14.8742C138.754 14.7495 139.471 14.8118 140.125 15.0924C140.717 15.3418 141.216 15.7782 141.559 16.3082C141.995 16.9316 142.244 17.6798 142.275 18.4592C142.307 19.2697 142.089 20.049 141.652 20.7349C141.091 21.5766 140.375 22.2936 139.533 22.8547C137.82 24.0393 136.417 24.5381 135.296 24.351C134.08 24.164 133.083 23.5405 132.366 22.6365Z" fill="#F5A73F"/>
</g>
</g>
</g>
<defs>
<clipPath id="clip0_288_986">
<rect width="172.255" height="64" fill="white" transform="translate(0.744507 0.0666504)"/>
</clipPath>
</defs>
</svg>
