<svg width="26" height="26" viewBox="0 0 26 26" fill="none" xmlns="http://www.w3.org/2000/svg">
<path d="M10.75 13C10.75 12.5858 10.4142 12.25 10 12.25C9.58579 12.25 9.25 12.5858 9.25 13H10.75ZM9.25 19.6667C9.25 20.0809 9.58579 20.4167 10 20.4167C10.4142 20.4167 10.75 20.0809 10.75 19.6667H9.25ZM16.75 13C16.75 12.5858 16.4142 12.25 16 12.25C15.5858 12.25 15.25 12.5858 15.25 13H16.75ZM15.25 19.6667C15.25 20.0809 15.5858 20.4167 16 20.4167C16.4142 20.4167 16.75 20.0809 16.75 19.6667H15.25ZM1 5.58333C0.585786 5.58333 0.25 5.91912 0.25 6.33333C0.25 6.74755 0.585786 7.08333 1 7.08333V5.58333ZM25 7.08333C25.4142 7.08333 25.75 6.74755 25.75 6.33333C25.75 5.91912 25.4142 5.58333 25 5.58333V7.08333ZM4.75 10.3333C4.75 9.91912 4.41421 9.58333 4 9.58333C3.58579 9.58333 3.25 9.91912 3.25 10.3333H4.75ZM22.75 10.3333C22.75 9.91912 22.4142 9.58333 22 9.58333C21.5858 9.58333 21.25 9.91912 21.25 10.3333H22.75ZM17.5 6.33333V7.08333C17.9142 7.08333 18.25 6.74755 18.25 6.33333H17.5ZM8.5 6.33333H7.75C7.75 6.74755 8.08579 7.08333 8.5 7.08333V6.33333ZM9.25 13V19.6667H10.75V13H9.25ZM15.25 13V19.6667H16.75V13H15.25ZM1 7.08333H25V5.58333H1V7.08333ZM3.25 10.3333V21H4.75V10.3333H3.25ZM3.25 21C3.25 23.704 5.68601 25.75 8.5 25.75V24.25C6.34344 24.25 4.75 22.7144 4.75 21H3.25ZM8.5 25.75H17.5V24.25H8.5V25.75ZM17.5 25.75C20.3141 25.75 22.75 23.704 22.75 21H21.25C21.25 22.7144 19.6566 24.25 17.5 24.25V25.75ZM22.75 21V10.3333H21.25V21H22.75ZM9.25 3.66667C9.25 2.68873 10.1719 1.75 11.5 1.75V0.25C9.51442 0.25 7.75 1.69909 7.75 3.66667H9.25ZM11.5 1.75H14.5V0.25H11.5V1.75ZM14.5 1.75C15.8282 1.75 16.75 2.68872 16.75 3.66667H18.25C18.25 1.69909 16.4856 0.25 14.5 0.25V1.75ZM16.75 3.66667V6.33333H18.25V3.66667H16.75ZM17.5 5.58333H8.5V7.08333H17.5V5.58333ZM9.25 6.33333V3.66667H7.75V6.33333H9.25Z" fill="#FEFEFE"/>
</svg>
