<svg width="47" height="48" viewBox="0 0 47 48" fill="none" xmlns="http://www.w3.org/2000/svg">
  <path d="M24.013 25.7159C23.859 25.6939 23.661 25.6939 23.485 25.7159C19.613 25.5839 16.533 22.4159 16.533 18.5219C16.533 14.5399 19.745 11.3059 23.749 11.3059C27.731 11.3059 30.965 14.5399 30.965 18.5219C30.943 22.4159 27.885 25.5839 24.013 25.7159Z" stroke="white" stroke-width="2.5" stroke-linecap="round" stroke-linejoin="round" />
  <path d="M38.5769 40.2361C34.6609 43.8221 29.4689 46.0001 23.749 46.0001C18.029 46.0001 12.837 43.8221 8.92102 40.2361C9.14102 38.1681 10.461 36.1441 12.815 34.5601C18.843 30.5561 28.6989 30.5561 34.6829 34.5601C37.0369 36.1441 38.3569 38.1681 38.5769 40.2361Z" stroke="white" stroke-width="2.5" stroke-linecap="round" stroke-linejoin="round" />
  <path d="M23.749 45.9999C35.8991 45.9999 45.7489 36.1501 45.7489 23.9999C45.7489 11.8497 35.8991 2 23.749 2C11.5987 2 1.74902 11.8497 1.74902 23.9999C1.74902 36.1501 11.5987 45.9999 23.749 45.9999Z" stroke="white" stroke-width="2.5" stroke-linecap="round" stroke-linejoin="round" />
</svg>
